<svg xmlns="http://www.w3.org/2000/svg" width="500" height="700" viewBox="0 0 500 700">
  <defs>
    <style>
      .a, .b, .c, .e, .f {
        fill: none;
        stroke: blue;
        stroke-miterlimit: 10;
      }

      .a {
        stroke-width: 2px;
      }

      .c {
        stroke-dasharray: 1 2;
      }

      .d, .g {
        fill: blue;
      }

      .e {
        stroke-width: 0.52px;
      }

      .f {
        stroke-width: 0.5px;
      }

      .g {
        font-size: 16px;
        font-family: FedraSerifB-BookItalic, FedraSerifB Book;
        font-style: italic;
      }

      .h {
        letter-spacing: -0.01em;
      }

      .i {
        letter-spacing: -0.02em;
      }

      .j {
        letter-spacing: -0.01em;
      }
    </style>
  </defs>
  <title>double-diamond-vertical</title>
  <g>
    <polygon class="a" points="6.64 175.92 175.27 2.03 343.89 175.92 175.27 349.81 6.64 175.92"/>
    <polygon class="a" points="6.64 524.08 175.27 350.19 343.89 524.08 175.27 697.97 6.64 524.08"/>
  </g>
  <g>
    <line class="b" x1="0.83" y1="176.76" x2="1.33" y2="176.76"/>
    <line class="c" x1="3.34" y1="176.76" x2="498.5" y2="176.76"/>
    <line class="b" x1="499.5" y1="176.76" x2="500" y2="176.76"/>
  </g>
  <g>
    <line class="b" x1="0.42" y1="350.5" x2="0.92" y2="350.5"/>
    <line class="c" x1="2.92" y1="350.5" x2="498.08" y2="350.5"/>
    <line class="b" x1="499.08" y1="350.5" x2="499.58" y2="350.5"/>
  </g>
  <g>
    <line class="b" y1="524.24" x2="0.5" y2="524.24"/>
    <line class="c" x1="2.5" y1="524.24" x2="497.67" y2="524.24"/>
    <line class="b" x1="498.67" y1="524.24" x2="499.17" y2="524.24"/>
  </g>
  <g>
    <line class="b" x1="0.42" y1="697.97" x2="0.92" y2="697.97"/>
    <line class="c" x1="2.92" y1="697.97" x2="498.08" y2="697.97"/>
    <line class="b" x1="499.08" y1="697.97" x2="499.58" y2="697.97"/>
  </g>
  <g>
    <line class="b" x1="0.42" y1="3.03" x2="0.92" y2="3.03"/>
    <line class="c" x1="2.92" y1="3.03" x2="498.08" y2="3.03"/>
    <line class="b" x1="499.08" y1="3.03" x2="499.58" y2="3.03"/>
  </g>
  <g>
    <path class="d" d="M224.8,338.5H222v-8.74h2.71c2.87,0,5,1.49,5,4.34C229.7,337.17,227.78,338.5,224.8,338.5Zm-.1-7.7h-1.44v6.66h1.68c2.21,0,3.52-1.07,3.52-3.22C228.47,331.91,227,330.8,224.71,330.8Z"/>
    <path class="d" d="M233.19,338.5v-8.74H239v1h-4.61v2.8h4.34v1h-4.34v2.83h4.9v1Z"/>
    <path class="d" d="M244.34,330.79v3.15h4.53v1h-4.53v3.54h-1.25v-8.74h6.05v1Z"/>
    <path class="d" d="M252.45,338.5v-8.74h1.25v8.74Z"/>
    <path class="d" d="M264.05,338.5l-4.91-7.35.06.59v6.75H258v-8.74h1.63l5,7.48,0-.8v-6.67h1.26v8.74Z"/>
    <path class="d" d="M270.19,338.5v-8.74h1.25v8.74Z"/>
    <path class="d" d="M279.56,338.66a4.52,4.52,0,1,1,0-9,6.74,6.74,0,0,1,2.67.5l-.35,1a7,7,0,0,0-2.29-.4,3.05,3.05,0,0,0-3.33,3.35,3.25,3.25,0,0,0,3.57,3.52,7.87,7.87,0,0,0,2.13-.35c0,.13.27.86.32,1A7.29,7.29,0,0,1,279.56,338.66Zm-1.38,3c.67-.42.94-.82.94-1.23a2.43,2.43,0,0,0-.38-1.07H280a2.32,2.32,0,0,1,.32,1.07c0,.7-.45,1.42-1.7,2Z"/>
    <path class="d" d="M287.12,327.59a1.46,1.46,0,0,0-1.1.4l-.5-.74a2.33,2.33,0,0,1,1.68-.72c.85,0,1.34.59,2,.59a1.94,1.94,0,0,0,1.14-.45l.48.7a2.25,2.25,0,0,1-1.68.8C288.36,328.18,287.83,327.59,287.12,327.59Zm.19,2.18h1.87l3,8.74h-1.38l-1-2.91h-3.63l-1.15,2.91h-1.31Zm2.22,4.8-1.34-4.07-1.57,4.07Z"/>
    <path class="d" d="M298.1,338.61a4.14,4.14,0,0,1-4.39-4.5,4.27,4.27,0,0,1,4.61-4.48c2.9,0,4.37,2,4.37,4.5A4.22,4.22,0,0,1,298.1,338.61Zm.11-7.92A3.09,3.09,0,0,0,295,334.1c0,1.9,1.06,3.47,3.17,3.47s3.3-1.47,3.3-3.44A3.12,3.12,0,0,0,298.21,330.69Z"/>
  </g>
  <g>
    <g>
      <line class="e" x1="166.22" y1="21.09" x2="159.77" y2="34.67"/>
      <line class="e" x1="175.28" y1="20.75" x2="175.39" y2="34.3"/>
      <line class="e" x1="184.34" y1="20.41" x2="191.01" y2="33.93"/>
    </g>
    <g>
      <line class="e" x1="198.32" y1="37.78" x2="206.53" y2="50.51"/>
      <line class="e" x1="189.16" y1="37.63" x2="194.08" y2="50.36"/>
      <line class="e" x1="180" y1="37.49" x2="181.62" y2="50.22"/>
      <line class="e" x1="170.85" y1="37.34" x2="169.17" y2="50.07"/>
      <line class="e" x1="161.69" y1="37.19" x2="156.71" y2="49.92"/>
      <line class="e" x1="152.53" y1="37.04" x2="144.26" y2="49.77"/>
    </g>
    <g>
      <line class="e" x1="212.73" y1="53.89" x2="221.73" y2="66.35"/>
      <line class="e" x1="202.07" y1="53.78" x2="208.49" y2="66.25"/>
      <line class="e" x1="191.41" y1="53.67" x2="195.25" y2="66.14"/>
      <line class="e" x1="180.75" y1="53.57" x2="182.01" y2="66.04"/>
      <line class="e" x1="170.09" y1="53.46" x2="168.77" y2="65.93"/>
      <line class="e" x1="159.44" y1="53.36" x2="155.53" y2="65.83"/>
      <line class="e" x1="148.78" y1="53.25" x2="142.29" y2="65.72"/>
      <line class="e" x1="138.12" y1="53.14" x2="129.05" y2="65.62"/>
    </g>
    <g>
      <line class="e" x1="227.44" y1="69.74" x2="237.03" y2="82.2"/>
      <line class="e" x1="215.88" y1="69.66" x2="223.33" y2="82.12"/>
      <line class="e" x1="204.32" y1="69.58" x2="209.64" y2="82.03"/>
      <line class="e" x1="192.76" y1="69.5" x2="195.94" y2="81.95"/>
      <line class="e" x1="181.2" y1="69.41" x2="182.24" y2="81.87"/>
      <line class="e" x1="169.64" y1="69.33" x2="168.54" y2="81.79"/>
      <line class="e" x1="158.08" y1="69.25" x2="154.85" y2="81.7"/>
      <line class="e" x1="146.52" y1="69.17" x2="141.15" y2="81.62"/>
      <line class="e" x1="134.96" y1="69.08" x2="127.45" y2="81.54"/>
      <line class="e" x1="123.4" y1="69" x2="113.75" y2="81.46"/>
    </g>
    <g>
      <line class="e" x1="242.03" y1="85.43" x2="252.13" y2="98.04"/>
      <line class="e" x1="230.93" y1="85.37" x2="239.34" y2="97.98"/>
      <line class="e" x1="219.83" y1="85.31" x2="226.55" y2="97.92"/>
      <line class="e" x1="208.73" y1="85.25" x2="213.76" y2="97.86"/>
      <line class="e" x1="197.62" y1="85.18" x2="200.97" y2="97.79"/>
      <line class="e" x1="186.52" y1="85.12" x2="188.18" y2="97.73"/>
      <line class="e" x1="175.42" y1="85.06" x2="175.39" y2="97.67"/>
      <line class="e" x1="164.31" y1="85" x2="162.6" y2="97.61"/>
      <line class="e" x1="153.21" y1="84.94" x2="149.81" y2="97.55"/>
      <line class="e" x1="142.11" y1="84.88" x2="137.03" y2="97.49"/>
      <line class="e" x1="131" y1="84.81" x2="124.24" y2="97.42"/>
      <line class="e" x1="119.9" y1="84.75" x2="111.45" y2="97.36"/>
      <line class="e" x1="108.8" y1="84.69" x2="98.66" y2="97.3"/>
    </g>
    <g>
      <line class="e" x1="256.86" y1="101.02" x2="267.47" y2="113.88"/>
      <line class="e" x1="245.23" y1="100.96" x2="254.31" y2="113.83"/>
      <line class="e" x1="233.59" y1="100.91" x2="241.16" y2="113.78"/>
      <line class="e" x1="221.96" y1="100.86" x2="228.01" y2="113.72"/>
      <line class="e" x1="210.32" y1="100.81" x2="214.85" y2="113.67"/>
      <line class="e" x1="198.68" y1="100.75" x2="201.7" y2="113.62"/>
      <line class="e" x1="187.05" y1="100.7" x2="188.55" y2="113.57"/>
      <line class="e" x1="175.41" y1="100.65" x2="175.39" y2="113.51"/>
      <line class="e" x1="163.78" y1="100.6" x2="162.24" y2="113.46"/>
      <line class="e" x1="152.14" y1="100.54" x2="149.09" y2="113.41"/>
      <line class="e" x1="140.51" y1="100.49" x2="135.93" y2="113.36"/>
      <line class="e" x1="128.87" y1="100.44" x2="122.78" y2="113.3"/>
      <line class="e" x1="117.24" y1="100.38" x2="109.63" y2="113.25"/>
      <line class="e" x1="105.6" y1="100.33" x2="96.47" y2="113.2"/>
      <line class="e" x1="93.96" y1="100.28" x2="83.32" y2="113.14"/>
    </g>
    <g>
      <line class="e" x1="271.91" y1="116.52" x2="283.05" y2="129.73"/>
      <line class="e" x1="260.55" y1="116.48" x2="270.39" y2="129.68"/>
      <line class="e" x1="249.2" y1="116.43" x2="257.72" y2="129.64"/>
      <line class="e" x1="237.85" y1="116.39" x2="245.05" y2="129.6"/>
      <line class="e" x1="226.5" y1="116.35" x2="232.39" y2="129.55"/>
      <line class="e" x1="215.14" y1="116.3" x2="219.72" y2="129.51"/>
      <line class="e" x1="203.79" y1="116.26" x2="207.06" y2="129.47"/>
      <line class="e" x1="192.44" y1="116.22" x2="194.39" y2="129.42"/>
      <line class="e" x1="181.09" y1="116.18" x2="181.73" y2="129.38"/>
      <line class="e" x1="169.73" y1="116.13" x2="169.06" y2="129.33"/>
      <line class="e" x1="158.38" y1="116.09" x2="156.39" y2="129.29"/>
      <line class="e" x1="147.03" y1="116.05" x2="143.73" y2="129.25"/>
      <line class="e" x1="135.68" y1="116" x2="131.06" y2="129.2"/>
      <line class="e" x1="124.32" y1="115.96" x2="118.4" y2="129.16"/>
      <line class="e" x1="112.97" y1="115.92" x2="105.73" y2="129.12"/>
      <line class="e" x1="101.62" y1="115.87" x2="93.07" y2="129.07"/>
      <line class="e" x1="90.27" y1="115.83" x2="80.4" y2="129.03"/>
      <line class="e" x1="78.91" y1="115.79" x2="67.73" y2="128.99"/>
    </g>
    <g>
      <line class="e" x1="286.97" y1="131.95" x2="298.68" y2="145.57"/>
      <line class="e" x1="275.82" y1="131.91" x2="286.35" y2="145.53"/>
      <line class="e" x1="264.66" y1="131.88" x2="274.03" y2="145.5"/>
      <line class="e" x1="253.5" y1="131.84" x2="261.7" y2="145.46"/>
      <line class="e" x1="242.35" y1="131.8" x2="249.37" y2="145.42"/>
      <line class="e" x1="231.19" y1="131.77" x2="237.04" y2="145.38"/>
      <line class="e" x1="220.03" y1="131.73" x2="224.71" y2="145.35"/>
      <line class="e" x1="208.88" y1="131.69" x2="212.38" y2="145.31"/>
      <line class="e" x1="197.72" y1="131.66" x2="200.05" y2="145.27"/>
      <line class="e" x1="186.56" y1="131.62" x2="187.72" y2="145.24"/>
      <line class="e" x1="175.41" y1="131.59" x2="175.39" y2="145.2"/>
      <line class="e" x1="164.25" y1="131.55" x2="163.06" y2="145.16"/>
      <line class="e" x1="153.09" y1="131.51" x2="150.74" y2="145.13"/>
      <line class="e" x1="141.94" y1="131.48" x2="138.41" y2="145.09"/>
      <line class="e" x1="130.78" y1="131.44" x2="126.08" y2="145.05"/>
      <line class="e" x1="119.63" y1="131.4" x2="113.75" y2="145.01"/>
      <line class="e" x1="108.47" y1="131.37" x2="101.42" y2="144.98"/>
      <line class="e" x1="97.31" y1="131.33" x2="89.09" y2="144.94"/>
      <line class="e" x1="86.16" y1="131.29" x2="76.76" y2="144.9"/>
      <line class="e" x1="75" y1="131.26" x2="64.43" y2="144.87"/>
      <line class="e" x1="63.84" y1="131.22" x2="52.1" y2="144.83"/>
    </g>
    <g>
      <line class="e" x1="301.58" y1="147.32" x2="313.83" y2="161.41"/>
      <line class="e" x1="290.11" y1="147.28" x2="301.25" y2="161.38"/>
      <line class="e" x1="278.64" y1="147.25" x2="288.66" y2="161.34"/>
      <line class="e" x1="267.17" y1="147.22" x2="276.08" y2="161.31"/>
      <line class="e" x1="255.7" y1="147.18" x2="263.49" y2="161.28"/>
      <line class="e" x1="244.23" y1="147.15" x2="250.91" y2="161.24"/>
      <line class="e" x1="232.76" y1="147.12" x2="238.32" y2="161.21"/>
      <line class="e" x1="221.29" y1="147.08" x2="225.73" y2="161.18"/>
      <line class="e" x1="209.82" y1="147.05" x2="213.15" y2="161.14"/>
      <line class="e" x1="198.35" y1="147.02" x2="200.56" y2="161.11"/>
      <line class="e" x1="186.88" y1="146.98" x2="187.98" y2="161.08"/>
      <line class="e" x1="175.41" y1="146.95" x2="175.39" y2="161.04"/>
      <line class="e" x1="163.94" y1="146.92" x2="162.81" y2="161.01"/>
      <line class="e" x1="152.47" y1="146.89" x2="150.22" y2="160.98"/>
      <line class="e" x1="141" y1="146.85" x2="137.64" y2="160.94"/>
      <line class="e" x1="129.52" y1="146.82" x2="125.05" y2="160.91"/>
      <line class="e" x1="118.05" y1="146.79" x2="112.47" y2="160.87"/>
      <line class="e" x1="106.58" y1="146.75" x2="99.88" y2="160.84"/>
      <line class="e" x1="95.11" y1="146.72" x2="87.29" y2="160.81"/>
      <line class="e" x1="83.64" y1="146.69" x2="74.71" y2="160.77"/>
      <line class="e" x1="72.17" y1="146.65" x2="62.12" y2="160.74"/>
      <line class="e" x1="60.7" y1="146.62" x2="49.54" y2="160.71"/>
      <line class="e" x1="49.23" y1="146.59" x2="36.95" y2="160.67"/>
    </g>
    <g>
      <line class="e" x1="316.14" y1="162.63" x2="328.97" y2="177.25"/>
      <line class="e" x1="304.88" y1="162.6" x2="316.68" y2="177.23"/>
      <line class="e" x1="293.62" y1="162.57" x2="304.4" y2="177.2"/>
      <line class="e" x1="282.36" y1="162.55" x2="292.11" y2="177.17"/>
      <line class="e" x1="271.11" y1="162.52" x2="279.82" y2="177.14"/>
      <line class="e" x1="259.85" y1="162.49" x2="267.54" y2="177.11"/>
      <line class="e" x1="248.59" y1="162.46" x2="255.25" y2="177.08"/>
      <line class="e" x1="237.33" y1="162.43" x2="242.97" y2="177.05"/>
      <line class="e" x1="226.07" y1="162.4" x2="230.68" y2="177.02"/>
      <line class="e" x1="214.81" y1="162.37" x2="218.39" y2="176.99"/>
      <line class="e" x1="203.55" y1="162.34" x2="206.11" y2="176.96"/>
      <line class="e" x1="192.29" y1="162.31" x2="193.82" y2="176.93"/>
      <line class="e" x1="181.03" y1="162.28" x2="181.54" y2="176.9"/>
      <line class="e" x1="169.77" y1="162.26" x2="169.25" y2="176.87"/>
      <line class="e" x1="158.51" y1="162.23" x2="156.96" y2="176.84"/>
      <line class="e" x1="147.26" y1="162.2" x2="144.68" y2="176.81"/>
      <line class="e" x1="136" y1="162.17" x2="132.39" y2="176.78"/>
      <line class="e" x1="124.74" y1="162.14" x2="120.11" y2="176.75"/>
      <line class="e" x1="113.48" y1="162.11" x2="107.82" y2="176.72"/>
      <line class="e" x1="102.22" y1="162.08" x2="95.53" y2="176.69"/>
      <line class="e" x1="90.96" y1="162.05" x2="83.25" y2="176.66"/>
      <line class="e" x1="79.7" y1="162.02" x2="70.96" y2="176.63"/>
      <line class="e" x1="68.44" y1="162" x2="58.68" y2="176.6"/>
      <line class="e" x1="57.18" y1="161.97" x2="46.39" y2="176.57"/>
      <line class="e" x1="45.92" y1="161.94" x2="34.1" y2="176.55"/>
      <line class="e" x1="34.67" y1="161.91" x2="21.82" y2="176.52"/>
    </g>
  </g>
  <g>
    <g>
      <line class="e" x1="184.56" y1="332.68" x2="191.01" y2="319.1"/>
      <line class="e" x1="175.5" y1="333.02" x2="175.39" y2="319.47"/>
      <line class="e" x1="166.44" y1="333.36" x2="159.77" y2="319.84"/>
    </g>
    <g>
      <line class="e" x1="152.46" y1="315.99" x2="144.26" y2="303.26"/>
      <line class="e" x1="161.62" y1="316.14" x2="156.71" y2="303.41"/>
      <line class="e" x1="170.78" y1="316.29" x2="169.17" y2="303.55"/>
      <line class="e" x1="179.94" y1="316.43" x2="181.62" y2="303.7"/>
      <line class="e" x1="189.1" y1="316.58" x2="194.08" y2="303.85"/>
      <line class="e" x1="198.26" y1="316.73" x2="206.53" y2="304"/>
    </g>
    <g>
      <line class="e" x1="138.06" y1="299.88" x2="129.05" y2="287.42"/>
      <line class="e" x1="148.72" y1="299.99" x2="142.29" y2="287.52"/>
      <line class="e" x1="159.38" y1="300.1" x2="155.53" y2="287.63"/>
      <line class="e" x1="170.03" y1="300.2" x2="168.77" y2="287.73"/>
      <line class="e" x1="180.69" y1="300.31" x2="182.01" y2="287.84"/>
      <line class="e" x1="191.35" y1="300.42" x2="195.25" y2="287.94"/>
      <line class="e" x1="202.01" y1="300.52" x2="208.49" y2="288.05"/>
      <line class="e" x1="212.67" y1="300.63" x2="221.73" y2="288.16"/>
    </g>
    <g>
      <line class="e" x1="123.35" y1="284.03" x2="113.75" y2="271.57"/>
      <line class="e" x1="134.91" y1="284.11" x2="127.45" y2="271.66"/>
      <line class="e" x1="146.47" y1="284.19" x2="141.15" y2="271.74"/>
      <line class="e" x1="158.03" y1="284.28" x2="154.85" y2="271.82"/>
      <line class="e" x1="169.59" y1="284.36" x2="168.54" y2="271.9"/>
      <line class="e" x1="181.15" y1="284.44" x2="182.24" y2="271.98"/>
      <line class="e" x1="192.71" y1="284.52" x2="195.94" y2="272.07"/>
      <line class="e" x1="204.27" y1="284.61" x2="209.64" y2="272.15"/>
      <line class="e" x1="215.82" y1="284.69" x2="223.33" y2="272.23"/>
      <line class="e" x1="227.38" y1="284.77" x2="237.03" y2="272.31"/>
    </g>
    <g>
      <line class="e" x1="108.75" y1="268.34" x2="98.66" y2="255.73"/>
      <line class="e" x1="119.85" y1="268.4" x2="111.45" y2="255.79"/>
      <line class="e" x1="130.96" y1="268.46" x2="124.24" y2="255.85"/>
      <line class="e" x1="142.06" y1="268.53" x2="137.03" y2="255.92"/>
      <line class="e" x1="153.16" y1="268.59" x2="149.81" y2="255.98"/>
      <line class="e" x1="164.27" y1="268.65" x2="162.6" y2="256.04"/>
      <line class="e" x1="175.37" y1="268.71" x2="175.39" y2="256.1"/>
      <line class="e" x1="186.47" y1="268.77" x2="188.18" y2="256.16"/>
      <line class="e" x1="197.58" y1="268.83" x2="200.97" y2="256.22"/>
      <line class="e" x1="208.68" y1="268.9" x2="213.76" y2="256.28"/>
      <line class="e" x1="219.78" y1="268.96" x2="226.55" y2="256.35"/>
      <line class="e" x1="230.88" y1="269.02" x2="239.34" y2="256.41"/>
      <line class="e" x1="241.99" y1="269.08" x2="252.13" y2="256.47"/>
    </g>
    <g>
      <line class="e" x1="93.92" y1="252.75" x2="83.32" y2="239.89"/>
      <line class="e" x1="105.56" y1="252.81" x2="96.47" y2="239.94"/>
      <line class="e" x1="117.19" y1="252.86" x2="109.63" y2="239.99"/>
      <line class="e" x1="128.83" y1="252.91" x2="122.78" y2="240.05"/>
      <line class="e" x1="140.47" y1="252.96" x2="135.93" y2="240.1"/>
      <line class="e" x1="152.1" y1="253.02" x2="149.09" y2="240.15"/>
      <line class="e" x1="163.74" y1="253.07" x2="162.24" y2="240.2"/>
      <line class="e" x1="175.37" y1="253.12" x2="175.39" y2="240.26"/>
      <line class="e" x1="187.01" y1="253.17" x2="188.55" y2="240.31"/>
      <line class="e" x1="198.64" y1="253.23" x2="201.7" y2="240.36"/>
      <line class="e" x1="210.28" y1="253.28" x2="214.85" y2="240.42"/>
      <line class="e" x1="221.91" y1="253.33" x2="228.01" y2="240.47"/>
      <line class="e" x1="233.55" y1="253.39" x2="241.16" y2="240.52"/>
      <line class="e" x1="245.19" y1="253.44" x2="254.31" y2="240.57"/>
      <line class="e" x1="256.82" y1="253.49" x2="267.47" y2="240.63"/>
    </g>
    <g>
      <line class="e" x1="78.88" y1="237.25" x2="67.73" y2="224.04"/>
      <line class="e" x1="90.23" y1="237.29" x2="80.4" y2="224.09"/>
      <line class="e" x1="101.58" y1="237.34" x2="93.07" y2="224.13"/>
      <line class="e" x1="112.94" y1="237.38" x2="105.73" y2="224.17"/>
      <line class="e" x1="124.29" y1="237.42" x2="118.4" y2="224.22"/>
      <line class="e" x1="135.64" y1="237.47" x2="131.06" y2="224.26"/>
      <line class="e" x1="146.99" y1="237.51" x2="143.73" y2="224.31"/>
      <line class="e" x1="158.35" y1="237.55" x2="156.39" y2="224.35"/>
      <line class="e" x1="169.7" y1="237.6" x2="169.06" y2="224.39"/>
      <line class="e" x1="181.05" y1="237.64" x2="181.73" y2="224.44"/>
      <line class="e" x1="192.4" y1="237.68" x2="194.39" y2="224.48"/>
      <line class="e" x1="203.76" y1="237.72" x2="207.06" y2="224.52"/>
      <line class="e" x1="215.11" y1="237.77" x2="219.72" y2="224.57"/>
      <line class="e" x1="226.46" y1="237.81" x2="232.39" y2="224.61"/>
      <line class="e" x1="237.81" y1="237.85" x2="245.05" y2="224.65"/>
      <line class="e" x1="249.17" y1="237.9" x2="257.72" y2="224.7"/>
      <line class="e" x1="260.52" y1="237.94" x2="270.39" y2="224.74"/>
      <line class="e" x1="271.87" y1="237.98" x2="283.05" y2="224.78"/>
    </g>
    <g>
      <line class="e" x1="63.81" y1="221.82" x2="52.1" y2="208.2"/>
      <line class="e" x1="74.97" y1="221.86" x2="64.43" y2="208.24"/>
      <line class="e" x1="86.12" y1="221.89" x2="76.76" y2="208.28"/>
      <line class="e" x1="97.28" y1="221.93" x2="89.09" y2="208.31"/>
      <line class="e" x1="108.44" y1="221.97" x2="101.42" y2="208.35"/>
      <line class="e" x1="119.59" y1="222" x2="113.75" y2="208.39"/>
      <line class="e" x1="130.75" y1="222.04" x2="126.08" y2="208.42"/>
      <line class="e" x1="141.91" y1="222.08" x2="138.41" y2="208.46"/>
      <line class="e" x1="153.06" y1="222.11" x2="150.74" y2="208.5"/>
      <line class="e" x1="164.22" y1="222.15" x2="163.06" y2="208.53"/>
      <line class="e" x1="175.38" y1="222.19" x2="175.39" y2="208.57"/>
      <line class="e" x1="186.53" y1="222.22" x2="187.72" y2="208.61"/>
      <line class="e" x1="197.69" y1="222.26" x2="200.05" y2="208.65"/>
      <line class="e" x1="208.85" y1="222.3" x2="212.38" y2="208.68"/>
      <line class="e" x1="220" y1="222.33" x2="224.71" y2="208.72"/>
      <line class="e" x1="231.16" y1="222.37" x2="237.04" y2="208.76"/>
      <line class="e" x1="242.32" y1="222.4" x2="249.37" y2="208.79"/>
      <line class="e" x1="253.47" y1="222.44" x2="261.7" y2="208.83"/>
      <line class="e" x1="264.63" y1="222.48" x2="274.03" y2="208.87"/>
      <line class="e" x1="275.79" y1="222.51" x2="286.35" y2="208.9"/>
      <line class="e" x1="286.94" y1="222.55" x2="298.68" y2="208.94"/>
    </g>
    <g>
      <line class="e" x1="49.21" y1="206.46" x2="36.95" y2="192.36"/>
      <line class="e" x1="60.68" y1="206.49" x2="49.54" y2="192.39"/>
      <line class="e" x1="72.15" y1="206.52" x2="62.12" y2="192.43"/>
      <line class="e" x1="83.62" y1="206.55" x2="74.71" y2="192.46"/>
      <line class="e" x1="95.09" y1="206.59" x2="87.29" y2="192.49"/>
      <line class="e" x1="106.56" y1="206.62" x2="99.88" y2="192.53"/>
      <line class="e" x1="118.03" y1="206.65" x2="112.47" y2="192.56"/>
      <line class="e" x1="129.5" y1="206.69" x2="125.05" y2="192.59"/>
      <line class="e" x1="140.97" y1="206.72" x2="137.64" y2="192.63"/>
      <line class="e" x1="152.44" y1="206.75" x2="150.22" y2="192.66"/>
      <line class="e" x1="163.91" y1="206.79" x2="162.81" y2="192.69"/>
      <line class="e" x1="175.38" y1="206.82" x2="175.39" y2="192.73"/>
      <line class="e" x1="186.85" y1="206.85" x2="187.98" y2="192.76"/>
      <line class="e" x1="198.32" y1="206.89" x2="200.56" y2="192.8"/>
      <line class="e" x1="209.79" y1="206.92" x2="213.15" y2="192.83"/>
      <line class="e" x1="221.26" y1="206.95" x2="225.73" y2="192.86"/>
      <line class="e" x1="232.73" y1="206.98" x2="238.32" y2="192.9"/>
      <line class="e" x1="244.2" y1="207.02" x2="250.91" y2="192.93"/>
      <line class="e" x1="255.67" y1="207.05" x2="263.49" y2="192.96"/>
      <line class="e" x1="267.14" y1="207.08" x2="276.08" y2="193"/>
      <line class="e" x1="278.61" y1="207.12" x2="288.66" y2="193.03"/>
      <line class="e" x1="290.08" y1="207.15" x2="301.25" y2="193.06"/>
      <line class="e" x1="301.55" y1="207.18" x2="313.83" y2="193.1"/>
    </g>
    <g>
      <line class="e" x1="34.64" y1="191.14" x2="21.82" y2="176.52"/>
      <line class="e" x1="45.9" y1="191.17" x2="34.1" y2="176.55"/>
      <line class="e" x1="57.16" y1="191.2" x2="46.39" y2="176.57"/>
      <line class="e" x1="68.42" y1="191.22" x2="58.68" y2="176.6"/>
      <line class="e" x1="79.68" y1="191.25" x2="70.96" y2="176.63"/>
      <line class="e" x1="90.94" y1="191.28" x2="83.25" y2="176.66"/>
      <line class="e" x1="102.2" y1="191.31" x2="95.53" y2="176.69"/>
      <line class="e" x1="113.46" y1="191.34" x2="107.82" y2="176.72"/>
      <line class="e" x1="124.72" y1="191.37" x2="120.11" y2="176.75"/>
      <line class="e" x1="135.98" y1="191.4" x2="132.39" y2="176.78"/>
      <line class="e" x1="147.24" y1="191.43" x2="144.68" y2="176.81"/>
      <line class="e" x1="158.49" y1="191.46" x2="156.96" y2="176.84"/>
      <line class="e" x1="169.75" y1="191.49" x2="169.25" y2="176.87"/>
      <line class="e" x1="181.01" y1="191.51" x2="181.54" y2="176.9"/>
      <line class="e" x1="192.27" y1="191.54" x2="193.82" y2="176.93"/>
      <line class="e" x1="203.53" y1="191.57" x2="206.11" y2="176.96"/>
      <line class="e" x1="214.79" y1="191.6" x2="218.39" y2="176.99"/>
      <line class="e" x1="226.05" y1="191.63" x2="230.68" y2="177.02"/>
      <line class="e" x1="237.31" y1="191.66" x2="242.97" y2="177.05"/>
      <line class="e" x1="248.57" y1="191.69" x2="255.25" y2="177.08"/>
      <line class="e" x1="259.83" y1="191.72" x2="267.54" y2="177.11"/>
      <line class="e" x1="271.08" y1="191.75" x2="279.82" y2="177.14"/>
      <line class="e" x1="282.34" y1="191.78" x2="292.11" y2="177.17"/>
      <line class="e" x1="293.6" y1="191.8" x2="304.4" y2="177.2"/>
      <line class="e" x1="304.86" y1="191.83" x2="316.68" y2="177.23"/>
      <line class="e" x1="316.12" y1="191.86" x2="328.97" y2="177.25"/>
    </g>
  </g>
  <g>
    <g>
      <line class="e" x1="166.22" y1="368.63" x2="159.77" y2="382.21"/>
      <line class="e" x1="175.28" y1="368.29" x2="175.39" y2="381.84"/>
      <line class="e" x1="184.34" y1="367.95" x2="191.01" y2="381.47"/>
    </g>
    <g>
      <line class="e" x1="198.32" y1="385.32" x2="206.53" y2="398.05"/>
      <line class="e" x1="189.16" y1="385.17" x2="194.08" y2="397.9"/>
      <line class="e" x1="180" y1="385.02" x2="181.62" y2="397.75"/>
      <line class="e" x1="170.85" y1="384.88" x2="169.17" y2="397.61"/>
      <line class="e" x1="161.69" y1="384.73" x2="156.71" y2="397.46"/>
      <line class="e" x1="152.53" y1="384.58" x2="144.26" y2="397.31"/>
    </g>
    <g>
      <line class="e" x1="212.73" y1="401.43" x2="221.73" y2="413.89"/>
      <line class="e" x1="202.07" y1="401.32" x2="208.49" y2="413.79"/>
      <line class="e" x1="191.41" y1="401.21" x2="195.25" y2="413.68"/>
      <line class="e" x1="180.75" y1="401.11" x2="182.01" y2="413.58"/>
      <line class="e" x1="170.09" y1="401" x2="168.77" y2="413.47"/>
      <line class="e" x1="159.44" y1="400.89" x2="155.53" y2="413.37"/>
      <line class="e" x1="148.78" y1="400.79" x2="142.29" y2="413.26"/>
      <line class="e" x1="138.12" y1="400.68" x2="129.05" y2="413.15"/>
    </g>
    <g>
      <line class="e" x1="227.44" y1="417.28" x2="237.03" y2="429.74"/>
      <line class="e" x1="215.88" y1="417.2" x2="223.33" y2="429.65"/>
      <line class="e" x1="204.32" y1="417.12" x2="209.64" y2="429.57"/>
      <line class="e" x1="192.76" y1="417.03" x2="195.94" y2="429.49"/>
      <line class="e" x1="181.2" y1="416.95" x2="182.24" y2="429.41"/>
      <line class="e" x1="169.64" y1="416.87" x2="168.54" y2="429.33"/>
      <line class="e" x1="158.08" y1="416.79" x2="154.85" y2="429.24"/>
      <line class="e" x1="146.52" y1="416.7" x2="141.15" y2="429.16"/>
      <line class="e" x1="134.96" y1="416.62" x2="127.45" y2="429.08"/>
      <line class="e" x1="123.4" y1="416.54" x2="113.75" y2="429"/>
    </g>
    <g>
      <line class="e" x1="242.03" y1="432.97" x2="252.13" y2="445.58"/>
      <line class="e" x1="230.93" y1="432.91" x2="239.34" y2="445.52"/>
      <line class="e" x1="219.83" y1="432.85" x2="226.55" y2="445.46"/>
      <line class="e" x1="208.73" y1="432.78" x2="213.76" y2="445.39"/>
      <line class="e" x1="197.62" y1="432.72" x2="200.97" y2="445.33"/>
      <line class="e" x1="186.52" y1="432.66" x2="188.18" y2="445.27"/>
      <line class="e" x1="175.42" y1="432.6" x2="175.39" y2="445.21"/>
      <line class="e" x1="164.31" y1="432.54" x2="162.6" y2="445.15"/>
      <line class="e" x1="153.21" y1="432.48" x2="149.81" y2="445.09"/>
      <line class="e" x1="142.11" y1="432.41" x2="137.03" y2="445.02"/>
      <line class="e" x1="131" y1="432.35" x2="124.24" y2="444.96"/>
      <line class="e" x1="119.9" y1="432.29" x2="111.45" y2="444.9"/>
      <line class="e" x1="108.8" y1="432.23" x2="98.66" y2="444.84"/>
    </g>
    <g>
      <line class="e" x1="256.86" y1="448.56" x2="267.47" y2="461.42"/>
      <line class="e" x1="245.23" y1="448.5" x2="254.31" y2="461.37"/>
      <line class="e" x1="233.59" y1="448.45" x2="241.16" y2="461.32"/>
      <line class="e" x1="221.96" y1="448.4" x2="228.01" y2="461.26"/>
      <line class="e" x1="210.32" y1="448.35" x2="214.85" y2="461.21"/>
      <line class="e" x1="198.68" y1="448.29" x2="201.7" y2="461.16"/>
      <line class="e" x1="187.05" y1="448.24" x2="188.55" y2="461.11"/>
      <line class="e" x1="175.41" y1="448.19" x2="175.39" y2="461.05"/>
      <line class="e" x1="163.78" y1="448.13" x2="162.24" y2="461"/>
      <line class="e" x1="152.14" y1="448.08" x2="149.09" y2="460.95"/>
      <line class="e" x1="140.51" y1="448.03" x2="135.93" y2="460.89"/>
      <line class="e" x1="128.87" y1="447.98" x2="122.78" y2="460.84"/>
      <line class="e" x1="117.24" y1="447.92" x2="109.63" y2="460.79"/>
      <line class="e" x1="105.6" y1="447.87" x2="96.47" y2="460.74"/>
      <line class="e" x1="93.96" y1="447.82" x2="83.32" y2="460.68"/>
    </g>
    <g>
      <line class="e" x1="271.91" y1="464.06" x2="283.05" y2="477.27"/>
      <line class="e" x1="260.55" y1="464.02" x2="270.39" y2="477.22"/>
      <line class="e" x1="249.2" y1="463.97" x2="257.72" y2="477.18"/>
      <line class="e" x1="237.85" y1="463.93" x2="245.05" y2="477.13"/>
      <line class="e" x1="226.5" y1="463.89" x2="232.39" y2="477.09"/>
      <line class="e" x1="215.14" y1="463.84" x2="219.72" y2="477.05"/>
      <line class="e" x1="203.79" y1="463.8" x2="207.06" y2="477"/>
      <line class="e" x1="192.44" y1="463.76" x2="194.39" y2="476.96"/>
      <line class="e" x1="181.09" y1="463.71" x2="181.73" y2="476.92"/>
      <line class="e" x1="169.73" y1="463.67" x2="169.06" y2="476.87"/>
      <line class="e" x1="158.38" y1="463.63" x2="156.39" y2="476.83"/>
      <line class="e" x1="147.03" y1="463.58" x2="143.73" y2="476.79"/>
      <line class="e" x1="135.68" y1="463.54" x2="131.06" y2="476.74"/>
      <line class="e" x1="124.32" y1="463.5" x2="118.4" y2="476.7"/>
      <line class="e" x1="112.97" y1="463.45" x2="105.73" y2="476.66"/>
      <line class="e" x1="101.62" y1="463.41" x2="93.07" y2="476.61"/>
      <line class="e" x1="90.27" y1="463.37" x2="80.4" y2="476.57"/>
      <line class="e" x1="78.91" y1="463.33" x2="67.73" y2="476.53"/>
    </g>
    <g>
      <line class="e" x1="286.97" y1="479.49" x2="298.68" y2="493.11"/>
      <line class="e" x1="275.82" y1="479.45" x2="286.35" y2="493.07"/>
      <line class="e" x1="264.66" y1="479.42" x2="274.03" y2="493.03"/>
      <line class="e" x1="253.5" y1="479.38" x2="261.7" y2="493"/>
      <line class="e" x1="242.35" y1="479.34" x2="249.37" y2="492.96"/>
      <line class="e" x1="231.19" y1="479.31" x2="237.04" y2="492.92"/>
      <line class="e" x1="220.03" y1="479.27" x2="224.71" y2="492.89"/>
      <line class="e" x1="208.88" y1="479.23" x2="212.38" y2="492.85"/>
      <line class="e" x1="197.72" y1="479.2" x2="200.05" y2="492.81"/>
      <line class="e" x1="186.56" y1="479.16" x2="187.72" y2="492.78"/>
      <line class="e" x1="175.41" y1="479.12" x2="175.39" y2="492.74"/>
      <line class="e" x1="164.25" y1="479.09" x2="163.06" y2="492.7"/>
      <line class="e" x1="153.09" y1="479.05" x2="150.74" y2="492.66"/>
      <line class="e" x1="141.94" y1="479.01" x2="138.41" y2="492.63"/>
      <line class="e" x1="130.78" y1="478.98" x2="126.08" y2="492.59"/>
      <line class="e" x1="119.63" y1="478.94" x2="113.75" y2="492.55"/>
      <line class="e" x1="108.47" y1="478.9" x2="101.42" y2="492.52"/>
      <line class="e" x1="97.31" y1="478.87" x2="89.09" y2="492.48"/>
      <line class="e" x1="86.16" y1="478.83" x2="76.76" y2="492.44"/>
      <line class="e" x1="75" y1="478.8" x2="64.43" y2="492.41"/>
      <line class="e" x1="63.84" y1="478.76" x2="52.1" y2="492.37"/>
    </g>
    <g>
      <line class="e" x1="301.58" y1="494.85" x2="313.83" y2="508.95"/>
      <line class="e" x1="290.11" y1="494.82" x2="301.25" y2="508.92"/>
      <line class="e" x1="278.64" y1="494.79" x2="288.66" y2="508.88"/>
      <line class="e" x1="267.17" y1="494.76" x2="276.08" y2="508.85"/>
      <line class="e" x1="255.7" y1="494.72" x2="263.49" y2="508.82"/>
      <line class="e" x1="244.23" y1="494.69" x2="250.91" y2="508.78"/>
      <line class="e" x1="232.76" y1="494.66" x2="238.32" y2="508.75"/>
      <line class="e" x1="221.29" y1="494.62" x2="225.73" y2="508.72"/>
      <line class="e" x1="209.82" y1="494.59" x2="213.15" y2="508.68"/>
      <line class="e" x1="198.35" y1="494.56" x2="200.56" y2="508.65"/>
      <line class="e" x1="186.88" y1="494.52" x2="187.98" y2="508.62"/>
      <line class="e" x1="175.41" y1="494.49" x2="175.39" y2="508.58"/>
      <line class="e" x1="163.94" y1="494.46" x2="162.81" y2="508.55"/>
      <line class="e" x1="152.47" y1="494.42" x2="150.22" y2="508.51"/>
      <line class="e" x1="141" y1="494.39" x2="137.64" y2="508.48"/>
      <line class="e" x1="129.52" y1="494.36" x2="125.05" y2="508.45"/>
      <line class="e" x1="118.05" y1="494.32" x2="112.47" y2="508.41"/>
      <line class="e" x1="106.58" y1="494.29" x2="99.88" y2="508.38"/>
      <line class="e" x1="95.11" y1="494.26" x2="87.29" y2="508.35"/>
      <line class="e" x1="83.64" y1="494.23" x2="74.71" y2="508.31"/>
      <line class="e" x1="72.17" y1="494.19" x2="62.12" y2="508.28"/>
      <line class="e" x1="60.7" y1="494.16" x2="49.54" y2="508.25"/>
      <line class="e" x1="49.23" y1="494.13" x2="36.95" y2="508.21"/>
    </g>
    <g>
      <line class="e" x1="316.14" y1="510.17" x2="328.97" y2="524.79"/>
      <line class="e" x1="304.88" y1="510.14" x2="316.68" y2="524.76"/>
      <line class="e" x1="293.62" y1="510.11" x2="304.4" y2="524.73"/>
      <line class="e" x1="282.36" y1="510.08" x2="292.11" y2="524.71"/>
      <line class="e" x1="271.11" y1="510.06" x2="279.82" y2="524.68"/>
      <line class="e" x1="259.85" y1="510.03" x2="267.54" y2="524.65"/>
      <line class="e" x1="248.59" y1="510" x2="255.25" y2="524.62"/>
      <line class="e" x1="237.33" y1="509.97" x2="242.97" y2="524.59"/>
      <line class="e" x1="226.07" y1="509.94" x2="230.68" y2="524.56"/>
      <line class="e" x1="214.81" y1="509.91" x2="218.39" y2="524.53"/>
      <line class="e" x1="203.55" y1="509.88" x2="206.11" y2="524.5"/>
      <line class="e" x1="192.29" y1="509.85" x2="193.82" y2="524.47"/>
      <line class="e" x1="181.03" y1="509.82" x2="181.54" y2="524.44"/>
      <line class="e" x1="169.77" y1="509.8" x2="169.25" y2="524.41"/>
      <line class="e" x1="158.51" y1="509.77" x2="156.96" y2="524.38"/>
      <line class="e" x1="147.26" y1="509.74" x2="144.68" y2="524.35"/>
      <line class="e" x1="136" y1="509.71" x2="132.39" y2="524.32"/>
      <line class="e" x1="124.74" y1="509.68" x2="120.11" y2="524.29"/>
      <line class="e" x1="113.48" y1="509.65" x2="107.82" y2="524.26"/>
      <line class="e" x1="102.22" y1="509.62" x2="95.53" y2="524.23"/>
      <line class="e" x1="90.96" y1="509.59" x2="83.25" y2="524.2"/>
      <line class="e" x1="79.7" y1="509.56" x2="70.96" y2="524.17"/>
      <line class="e" x1="68.44" y1="509.53" x2="58.68" y2="524.14"/>
      <line class="e" x1="57.18" y1="509.51" x2="46.39" y2="524.11"/>
      <line class="e" x1="45.92" y1="509.48" x2="34.1" y2="524.08"/>
      <line class="e" x1="34.67" y1="509.45" x2="21.82" y2="524.05"/>
    </g>
  </g>
  <g>
    <g>
      <line class="e" x1="184.56" y1="680.22" x2="191.01" y2="666.64"/>
      <line class="e" x1="175.5" y1="680.56" x2="175.39" y2="667.01"/>
      <line class="e" x1="166.44" y1="680.9" x2="159.77" y2="667.38"/>
    </g>
    <g>
      <line class="e" x1="152.46" y1="663.53" x2="144.26" y2="650.8"/>
      <line class="e" x1="161.62" y1="663.68" x2="156.71" y2="650.95"/>
      <line class="e" x1="170.78" y1="663.82" x2="169.17" y2="651.09"/>
      <line class="e" x1="179.94" y1="663.97" x2="181.62" y2="651.24"/>
      <line class="e" x1="189.1" y1="664.12" x2="194.08" y2="651.39"/>
      <line class="e" x1="198.26" y1="664.27" x2="206.53" y2="651.54"/>
    </g>
    <g>
      <line class="e" x1="138.06" y1="647.42" x2="129.05" y2="634.96"/>
      <line class="e" x1="148.72" y1="647.53" x2="142.29" y2="635.06"/>
      <line class="e" x1="159.38" y1="647.64" x2="155.53" y2="635.17"/>
      <line class="e" x1="170.03" y1="647.74" x2="168.77" y2="635.27"/>
      <line class="e" x1="180.69" y1="647.85" x2="182.01" y2="635.38"/>
      <line class="e" x1="191.35" y1="647.95" x2="195.25" y2="635.48"/>
      <line class="e" x1="202.01" y1="648.06" x2="208.49" y2="635.59"/>
      <line class="e" x1="212.67" y1="648.17" x2="221.73" y2="635.69"/>
    </g>
    <g>
      <line class="e" x1="123.35" y1="631.57" x2="113.75" y2="619.11"/>
      <line class="e" x1="134.91" y1="631.65" x2="127.45" y2="619.19"/>
      <line class="e" x1="146.47" y1="631.73" x2="141.15" y2="619.28"/>
      <line class="e" x1="158.03" y1="631.81" x2="154.85" y2="619.36"/>
      <line class="e" x1="169.59" y1="631.9" x2="168.54" y2="619.44"/>
      <line class="e" x1="181.15" y1="631.98" x2="182.24" y2="619.52"/>
      <line class="e" x1="192.71" y1="632.06" x2="195.94" y2="619.61"/>
      <line class="e" x1="204.27" y1="632.14" x2="209.64" y2="619.69"/>
      <line class="e" x1="215.82" y1="632.23" x2="223.33" y2="619.77"/>
      <line class="e" x1="227.38" y1="632.31" x2="237.03" y2="619.85"/>
    </g>
    <g>
      <line class="e" x1="108.75" y1="615.88" x2="98.66" y2="603.27"/>
      <line class="e" x1="119.85" y1="615.94" x2="111.45" y2="603.33"/>
      <line class="e" x1="130.96" y1="616" x2="124.24" y2="603.39"/>
      <line class="e" x1="142.06" y1="616.06" x2="137.03" y2="603.45"/>
      <line class="e" x1="153.16" y1="616.13" x2="149.81" y2="603.52"/>
      <line class="e" x1="164.27" y1="616.19" x2="162.6" y2="603.58"/>
      <line class="e" x1="175.37" y1="616.25" x2="175.39" y2="603.64"/>
      <line class="e" x1="186.47" y1="616.31" x2="188.18" y2="603.7"/>
      <line class="e" x1="197.58" y1="616.37" x2="200.97" y2="603.76"/>
      <line class="e" x1="208.68" y1="616.43" x2="213.76" y2="603.82"/>
      <line class="e" x1="219.78" y1="616.5" x2="226.55" y2="603.89"/>
      <line class="e" x1="230.88" y1="616.56" x2="239.34" y2="603.95"/>
      <line class="e" x1="241.99" y1="616.62" x2="252.13" y2="604.01"/>
    </g>
    <g>
      <line class="e" x1="93.92" y1="600.29" x2="83.32" y2="587.43"/>
      <line class="e" x1="105.56" y1="600.34" x2="96.47" y2="587.48"/>
      <line class="e" x1="117.19" y1="600.4" x2="109.63" y2="587.53"/>
      <line class="e" x1="128.83" y1="600.45" x2="122.78" y2="587.58"/>
      <line class="e" x1="140.47" y1="600.5" x2="135.93" y2="587.64"/>
      <line class="e" x1="152.1" y1="600.56" x2="149.09" y2="587.69"/>
      <line class="e" x1="163.74" y1="600.61" x2="162.24" y2="587.74"/>
      <line class="e" x1="175.37" y1="600.66" x2="175.39" y2="587.8"/>
      <line class="e" x1="187.01" y1="600.71" x2="188.55" y2="587.85"/>
      <line class="e" x1="198.64" y1="600.77" x2="201.7" y2="587.9"/>
      <line class="e" x1="210.28" y1="600.82" x2="214.85" y2="587.95"/>
      <line class="e" x1="221.91" y1="600.87" x2="228.01" y2="588.01"/>
      <line class="e" x1="233.55" y1="600.92" x2="241.16" y2="588.06"/>
      <line class="e" x1="245.19" y1="600.98" x2="254.31" y2="588.11"/>
      <line class="e" x1="256.82" y1="601.03" x2="267.47" y2="588.17"/>
    </g>
    <g>
      <line class="e" x1="78.88" y1="584.79" x2="67.73" y2="571.58"/>
      <line class="e" x1="90.23" y1="584.83" x2="80.4" y2="571.63"/>
      <line class="e" x1="101.58" y1="584.87" x2="93.07" y2="571.67"/>
      <line class="e" x1="112.94" y1="584.92" x2="105.73" y2="571.71"/>
      <line class="e" x1="124.29" y1="584.96" x2="118.4" y2="571.76"/>
      <line class="e" x1="135.64" y1="585" x2="131.06" y2="571.8"/>
      <line class="e" x1="146.99" y1="585.05" x2="143.73" y2="571.84"/>
      <line class="e" x1="158.35" y1="585.09" x2="156.39" y2="571.89"/>
      <line class="e" x1="169.7" y1="585.13" x2="169.06" y2="571.93"/>
      <line class="e" x1="181.05" y1="585.18" x2="181.73" y2="571.97"/>
      <line class="e" x1="192.4" y1="585.22" x2="194.39" y2="572.02"/>
      <line class="e" x1="203.76" y1="585.26" x2="207.06" y2="572.06"/>
      <line class="e" x1="215.11" y1="585.31" x2="219.72" y2="572.11"/>
      <line class="e" x1="226.46" y1="585.35" x2="232.39" y2="572.15"/>
      <line class="e" x1="237.81" y1="585.39" x2="245.05" y2="572.19"/>
      <line class="e" x1="249.17" y1="585.44" x2="257.72" y2="572.24"/>
      <line class="e" x1="260.52" y1="585.48" x2="270.39" y2="572.28"/>
      <line class="e" x1="271.87" y1="585.52" x2="283.05" y2="572.32"/>
    </g>
    <g>
      <line class="e" x1="63.81" y1="569.36" x2="52.1" y2="555.74"/>
      <line class="e" x1="74.97" y1="569.4" x2="64.43" y2="555.78"/>
      <line class="e" x1="86.12" y1="569.43" x2="76.76" y2="555.81"/>
      <line class="e" x1="97.28" y1="569.47" x2="89.09" y2="555.85"/>
      <line class="e" x1="108.44" y1="569.5" x2="101.42" y2="555.89"/>
      <line class="e" x1="119.59" y1="569.54" x2="113.75" y2="555.93"/>
      <line class="e" x1="130.75" y1="569.58" x2="126.08" y2="555.96"/>
      <line class="e" x1="141.91" y1="569.61" x2="138.41" y2="556"/>
      <line class="e" x1="153.06" y1="569.65" x2="150.74" y2="556.04"/>
      <line class="e" x1="164.22" y1="569.69" x2="163.06" y2="556.07"/>
      <line class="e" x1="175.38" y1="569.72" x2="175.39" y2="556.11"/>
      <line class="e" x1="186.53" y1="569.76" x2="187.72" y2="556.15"/>
      <line class="e" x1="197.69" y1="569.8" x2="200.05" y2="556.18"/>
      <line class="e" x1="208.85" y1="569.83" x2="212.38" y2="556.22"/>
      <line class="e" x1="220" y1="569.87" x2="224.71" y2="556.26"/>
      <line class="e" x1="231.16" y1="569.91" x2="237.04" y2="556.29"/>
      <line class="e" x1="242.32" y1="569.94" x2="249.37" y2="556.33"/>
      <line class="e" x1="253.47" y1="569.98" x2="261.7" y2="556.37"/>
      <line class="e" x1="264.63" y1="570.02" x2="274.03" y2="556.41"/>
      <line class="e" x1="275.79" y1="570.05" x2="286.35" y2="556.44"/>
      <line class="e" x1="286.94" y1="570.09" x2="298.68" y2="556.48"/>
    </g>
    <g>
      <line class="e" x1="49.21" y1="553.99" x2="36.95" y2="539.9"/>
      <line class="e" x1="60.68" y1="554.03" x2="49.54" y2="539.93"/>
      <line class="e" x1="72.15" y1="554.06" x2="62.12" y2="539.96"/>
      <line class="e" x1="83.62" y1="554.09" x2="74.71" y2="540"/>
      <line class="e" x1="95.09" y1="554.13" x2="87.29" y2="540.03"/>
      <line class="e" x1="106.56" y1="554.16" x2="99.88" y2="540.07"/>
      <line class="e" x1="118.03" y1="554.19" x2="112.47" y2="540.1"/>
      <line class="e" x1="129.5" y1="554.23" x2="125.05" y2="540.13"/>
      <line class="e" x1="140.97" y1="554.26" x2="137.64" y2="540.17"/>
      <line class="e" x1="152.44" y1="554.29" x2="150.22" y2="540.2"/>
      <line class="e" x1="163.91" y1="554.33" x2="162.81" y2="540.23"/>
      <line class="e" x1="175.38" y1="554.36" x2="175.39" y2="540.27"/>
      <line class="e" x1="186.85" y1="554.39" x2="187.98" y2="540.3"/>
      <line class="e" x1="198.32" y1="554.42" x2="200.56" y2="540.33"/>
      <line class="e" x1="209.79" y1="554.46" x2="213.15" y2="540.37"/>
      <line class="e" x1="221.26" y1="554.49" x2="225.73" y2="540.4"/>
      <line class="e" x1="232.73" y1="554.52" x2="238.32" y2="540.44"/>
      <line class="e" x1="244.2" y1="554.56" x2="250.91" y2="540.47"/>
      <line class="e" x1="255.67" y1="554.59" x2="263.49" y2="540.5"/>
      <line class="e" x1="267.14" y1="554.62" x2="276.08" y2="540.54"/>
      <line class="e" x1="278.61" y1="554.66" x2="288.66" y2="540.57"/>
      <line class="e" x1="290.08" y1="554.69" x2="301.25" y2="540.6"/>
      <line class="e" x1="301.55" y1="554.72" x2="313.83" y2="540.64"/>
    </g>
    <g>
      <line class="e" x1="34.64" y1="538.68" x2="21.82" y2="524.05"/>
      <line class="e" x1="45.9" y1="538.71" x2="34.1" y2="524.08"/>
      <line class="e" x1="57.16" y1="538.73" x2="46.39" y2="524.11"/>
      <line class="e" x1="68.42" y1="538.76" x2="58.68" y2="524.14"/>
      <line class="e" x1="79.68" y1="538.79" x2="70.96" y2="524.17"/>
      <line class="e" x1="90.94" y1="538.82" x2="83.25" y2="524.2"/>
      <line class="e" x1="102.2" y1="538.85" x2="95.53" y2="524.23"/>
      <line class="e" x1="113.46" y1="538.88" x2="107.82" y2="524.26"/>
      <line class="e" x1="124.72" y1="538.91" x2="120.11" y2="524.29"/>
      <line class="e" x1="135.98" y1="538.94" x2="132.39" y2="524.32"/>
      <line class="e" x1="147.24" y1="538.97" x2="144.68" y2="524.35"/>
      <line class="e" x1="158.49" y1="539" x2="156.96" y2="524.38"/>
      <line class="e" x1="169.75" y1="539.02" x2="169.25" y2="524.41"/>
      <line class="e" x1="181.01" y1="539.05" x2="181.54" y2="524.44"/>
      <line class="e" x1="192.27" y1="539.08" x2="193.82" y2="524.47"/>
      <line class="e" x1="203.53" y1="539.11" x2="206.11" y2="524.5"/>
      <line class="e" x1="214.79" y1="539.14" x2="218.39" y2="524.53"/>
      <line class="e" x1="226.05" y1="539.17" x2="230.68" y2="524.56"/>
      <line class="e" x1="237.31" y1="539.2" x2="242.97" y2="524.59"/>
      <line class="e" x1="248.57" y1="539.23" x2="255.25" y2="524.62"/>
      <line class="e" x1="259.83" y1="539.26" x2="267.54" y2="524.65"/>
      <line class="e" x1="271.08" y1="539.29" x2="279.82" y2="524.68"/>
      <line class="e" x1="282.34" y1="539.31" x2="292.11" y2="524.71"/>
      <line class="e" x1="293.6" y1="539.34" x2="304.4" y2="524.73"/>
      <line class="e" x1="304.86" y1="539.37" x2="316.68" y2="524.76"/>
      <line class="e" x1="316.12" y1="539.4" x2="328.97" y2="524.79"/>
    </g>
  </g>
  <g>
    <path class="d" d="M224.8,374.5H222v-8.74h2.71c2.87,0,5,1.49,5,4.34C229.7,373.17,227.78,374.5,224.8,374.5Zm-.1-7.7h-1.44v6.66h1.68c2.21,0,3.52-1.07,3.52-3.22C228.47,367.91,227,366.8,224.71,366.8Z"/>
    <path class="d" d="M236.68,374.61a4.14,4.14,0,0,1-4.39-4.5,4.27,4.27,0,0,1,4.61-4.48c2.9,0,4.37,2,4.37,4.5A4.22,4.22,0,0,1,236.68,374.61Zm.11-7.92a3.09,3.09,0,0,0-3.25,3.41c0,1.9,1.06,3.47,3.17,3.47s3.3-1.47,3.3-3.44A3.12,3.12,0,0,0,236.79,366.69Z"/>
    <path class="d" d="M248.93,365.76h3.28a2.76,2.76,0,0,1,3,2.95c0,1.66-1.15,3.06-3.6,3.06h-.35v-1.06h.43c1.31,0,2.21-.69,2.21-2a1.72,1.72,0,0,0-1.92-2h-1.78v7.7h-1.23Z"/>
    <path class="d" d="M263,373.25s-1.63-1.84-1.73-1.94l-.53,0h-1.33v3.17h-1.25v-8.74h3.22c1.78,0,2.95.93,2.95,2.74a2.59,2.59,0,0,1-1.76,2.53l1.17,1.26a4.42,4.42,0,0,0,2,1.33l-.24,1A3.5,3.5,0,0,1,263,373.25Zm-2.19-2.95c1.31,0,2.21-.46,2.21-1.74s-.61-1.76-1.9-1.76h-1.7v3.51Z"/>
    <path class="d" d="M271.89,374.61a4.14,4.14,0,0,1-4.39-4.5,4.27,4.27,0,0,1,4.61-4.48c2.9,0,4.37,2,4.37,4.5A4.22,4.22,0,0,1,271.89,374.61Zm.11-7.92a3.09,3.09,0,0,0-3.25,3.41c0,1.9,1.06,3.47,3.17,3.47s3.3-1.47,3.3-3.44A3.12,3.12,0,0,0,272,366.69Z"/>
    <path class="d" d="M283.57,374.5H280v-8.74h3.23c2,0,3.06.9,3.06,2.23a2,2,0,0,1-1.15,1.84,2.24,2.24,0,0,1,1.76,2.13C286.87,373.45,285.85,374.5,283.57,374.5Zm-.64-7.75h-1.71v2.82h2c1.31,0,1.73-.5,1.73-1.41S284.23,366.76,282.93,366.76Zm.19,3.76h-1.91v3h2.18c1.17,0,2.21-.29,2.21-1.49S284.74,370.52,283.12,370.52Z"/>
    <path class="d" d="M290.5,374.5v-8.74h1.25v7.67h4.83v1.07Z"/>
    <path class="d" d="M299.44,374.5v-8.74h5.86v1h-4.61v2.8H305v1h-4.34v2.83h4.9v1Z"/>
    <path class="d" d="M318.42,374.5v-6.07l.06-1.14-3.35,7.2h-1.62l-3.06-7.09.08,1.06v6h-1.2v-8.74H311l3.33,7.76,3.63-7.76h1.63v8.74Z"/>
    <path class="d" d="M325.83,365.76h1.87l3,8.74h-1.38l-1-2.91h-3.63l-1.15,2.91h-1.31Zm2.22,4.8-1.34-4.07-1.57,4.07Z"/>
  </g>
  <ellipse class="f" cx="174.27" cy="351.22" rx="16.88" ry="17.41"/>
  <g>
    <g>
      <path class="d" d="M395.47,582.22v-8.74H402v1.94H398v1.5h3.83v1.84H398v1.52h4.39v1.94Z"/>
      <path class="d" d="M411.17,582.22l-3.6-5.22.13,1.09v4.13h-2.48v-8.74H408l3.6,5.36-.06-.93v-4.43H414v8.74Z"/>
      <path class="d" d="M421.42,575.42v6.8h-2.48v-6.8h-2.74v-1.94h8v1.94Z"/>
      <path class="d" d="M431,580.86l-1.3-1.44h-.83v2.8h-2.5v-8.74H430c2,0,3.55.93,3.55,2.95a2.75,2.75,0,0,1-1.3,2.37l.75.7a3.56,3.56,0,0,0,1.94,1l-.46,1.87A4.47,4.47,0,0,1,431,580.86Zm-1.62-3.22c1.18,0,1.58-.4,1.58-1.1s-.38-1.07-1.28-1.07h-.82v2.18Z"/>
      <path class="d" d="M437.28,582.22v-8.74h6.58v1.94h-4.1v1.5h3.83v1.84h-3.83v1.52h4.39v1.94Z"/>
      <path class="d" d="M453.36,582.12a8.24,8.24,0,0,1-2,.22c-3,0-5-1.41-5-4.43s1.82-4.51,5.07-4.51a6.66,6.66,0,0,1,2.85.58l-.67,1.78a7.6,7.6,0,0,0-2.21-.32c-1.47,0-2.53.64-2.53,2.37a2.39,2.39,0,0,0,2.69,2.5,2.58,2.58,0,0,0,.35,0v-2.42h2.48v3.94A8.57,8.57,0,0,1,453.36,582.12Z"/>
      <path class="d" d="M459.34,573.48h3.3l2.91,8.74H462.9l-.53-1.86H459.2l-.61,1.86H456Zm2.48,5.07-.93-3.28-1.09,3.28Z"/>
      <path class="d" d="M472.09,580.86l-1.3-1.44H470v2.8h-2.5v-8.74h3.59c2,0,3.55.93,3.55,2.95a2.76,2.76,0,0,1-1.3,2.37l.75.7a3.56,3.56,0,0,0,1.94,1l-.46,1.87A4.47,4.47,0,0,1,472.09,580.86Zm-1.62-3.22c1.18,0,1.58-.4,1.58-1.1s-.38-1.07-1.28-1.07H470v2.18Z"/>
    </g>
    <text class="g" transform="translate(392.63 618.22)">soluções que <tspan class="h" x="12.32" y="24">f</tspan><tspan x="17.41" y="24">uncionam</tspan></text>
  </g>
  <g>
    <g>
      <path class="d" d="M368.62,408.5h-3.38v-8.74h3.31c3.07,0,5.28,1.31,5.28,4.35S371.84,408.5,368.62,408.5Zm-.1-6.8h-.82v4.87h1.06c1.9,0,2.59-.8,2.59-2.34S370.51,401.7,368.53,401.7Z"/>
      <path class="d" d="M376.56,408.5v-8.74h6.58v1.94H379v1.5h3.83V405H379v1.52h4.39v1.94Z"/>
      <path class="d" d="M385.65,408.08l.69-1.89a8.11,8.11,0,0,0,2.72.42c1.18,0,1.52-.3,1.52-.62,0-.54-1.09-.72-2.21-1.12s-2.48-1.09-2.48-2.72,2-2.43,3.76-2.43a7.23,7.23,0,0,1,3.17.51l-.56,1.81a9.65,9.65,0,0,0-2.54-.34c-1,0-1.07.26-1.07.45,0,.46.9.72,1.9,1.09,1.33.48,2.87,1.12,2.87,2.67,0,2-2.26,2.72-4.32,2.72A7.5,7.5,0,0,1,385.65,408.08Z"/>
      <path class="d" d="M396,408.5v-8.74h6.58v1.94h-4.1v1.5h3.83V405h-3.83v1.52h4.39v1.94Z"/>
      <path class="d" d="M411.66,408.5l-3.6-5.22.13,1.09v4.13h-2.48v-8.74h2.74l3.6,5.36-.06-.93v-4.43h2.48v8.74Z"/>
      <path class="d" d="M416.54,399.76h2.61l2,6.9,2.42-6.9h2.55l-3.38,8.74h-3.38Z"/>
      <path class="d" d="M431.85,408.64c-3.17,0-4.75-1.74-4.75-4.51,0-2.95,1.92-4.48,5-4.48,3.28,0,4.72,1.79,4.72,4.5C436.82,407,435.06,408.64,431.85,408.64Zm.13-7a2.2,2.2,0,0,0-2.38,2.51c0,1.47.67,2.58,2.29,2.58,1.78,0,2.42-1.06,2.42-2.56S433.6,401.6,432,401.6Z"/>
      <path class="d" d="M439.53,408.5v-8.74H442v6.79h3.78v2Z"/>
      <path class="d" d="M446.27,399.76h2.61l2,6.9,2.42-6.9h2.55l-3.38,8.74h-3.38Z"/>
      <path class="d" d="M457.72,408.5v-8.74h6.58v1.94h-4.1v1.5H464V405h-3.83v1.52h4.39v1.94Z"/>
      <path class="d" d="M472.09,407.14l-1.3-1.44H470v2.8h-2.5v-8.74h3.59c2,0,3.55.93,3.55,2.95a2.75,2.75,0,0,1-1.3,2.37l.75.7a3.56,3.56,0,0,0,1.94,1l-.46,1.87A4.47,4.47,0,0,1,472.09,407.14Zm-1.62-3.22c1.18,0,1.58-.4,1.58-1.1s-.38-1.07-1.28-1.07H470v2.18Z"/>
    </g>
    <text class="g" transform="translate(416.74 444.5)">possí<tspan class="i" x="32.11" y="0">v</tspan><tspan x="39.14" y="0">eis </tspan><tspan x="4.93" y="24">solucões</tspan></text>
  </g>
  <g>
    <g>
      <path class="d" d="M417,235.39H413.6v-8.74h3.31c3.07,0,5.28,1.31,5.28,4.35S420.19,235.39,417,235.39Zm-.1-6.8h-.82v4.87h1.06c1.9,0,2.59-.8,2.59-2.34S418.86,228.59,416.88,228.59Z"/>
      <path class="d" d="M424.91,235.39v-8.74h6.58v1.94h-4.1v1.5h3.83v1.84h-3.83v1.52h4.39v1.94Z"/>
      <path class="d" d="M437.13,228.59v2.19h3.71v1.82h-3.71v2.79h-2.48v-8.74h6.47v1.94Z"/>
      <path class="d" d="M443.68,235.39v-8.74h2.48v8.74Z"/>
      <path class="d" d="M455.47,235.39l-3.6-5.22.13,1.09v4.13h-2.48v-8.74h2.74l3.6,5.36-.06-.93v-4.43h2.48v8.74Z"/>
      <path class="d" d="M461.63,235.39v-8.74h2.48v8.74Z"/>
      <path class="d" d="M472.09,234l-1.3-1.44H470v2.8h-2.5v-8.74h3.59c2,0,3.55.93,3.55,2.95a2.76,2.76,0,0,1-1.3,2.37l.75.7a3.56,3.56,0,0,0,1.94,1l-.46,1.87A4.47,4.47,0,0,1,472.09,234Zm-1.62-3.22c1.18,0,1.58-.4,1.58-1.1s-.38-1.07-1.28-1.07H470v2.18Z"/>
    </g>
    <text class="g" transform="translate(407.78 271.39)">p<tspan class="j" x="7.97" y="0">r</tspan><tspan x="13.18" y="0">oblemas</tspan><tspan x="1.82" y="24">pa</tspan><tspan class="j" x="18.24" y="24">r</tspan><tspan x="23.46" y="24">a </tspan><tspan class="i" x="34.78" y="24">f</tspan><tspan x="39.71" y="24">ocar</tspan></text>
  </g>
  <g>
    <g>
      <path class="d" d="M391.41,61.71H388V53h3.31c3.07,0,5.28,1.31,5.28,4.35S394.62,61.71,391.41,61.71Zm-.1-6.8h-.82v4.87h1.06c1.9,0,2.59-.8,2.59-2.34S393.3,54.91,391.31,54.91Z"/>
      <path class="d" d="M399.34,61.71V53h6.58v1.94h-4.1v1.5h3.83v1.84h-3.83v1.52h4.39v1.94Z"/>
      <path class="d" d="M408.43,61.3l.69-1.89a8.11,8.11,0,0,0,2.72.42c1.18,0,1.52-.3,1.52-.62,0-.54-1.09-.72-2.21-1.12s-2.48-1.09-2.48-2.72,2-2.43,3.76-2.43a7.23,7.23,0,0,1,3.17.51L415,55.25a9.65,9.65,0,0,0-2.54-.34c-1,0-1.07.26-1.07.45,0,.46.9.72,1.9,1.09,1.33.48,2.87,1.12,2.87,2.67,0,2-2.26,2.72-4.32,2.72A7.5,7.5,0,0,1,408.43,61.3Z"/>
      <path class="d" d="M425.09,61.65a8.16,8.16,0,0,1-2,.19c-3.28,0-5-1.57-5-4.43,0-3,1.71-4.51,5-4.51a6.64,6.64,0,0,1,2.95.58l-.67,1.78a7.48,7.48,0,0,0-2.26-.32,2.19,2.19,0,0,0-2.48,2.37c0,1.63,1.06,2.5,2.74,2.5a7.59,7.59,0,0,0,2.14-.27c.18.61.37,1.23.54,1.84A6.43,6.43,0,0,1,425.09,61.65Z"/>
      <path class="d" d="M432.4,61.86c-3.17,0-4.75-1.74-4.75-4.51,0-2.95,1.92-4.48,5-4.48,3.28,0,4.72,1.79,4.72,4.5C437.36,60.26,435.6,61.86,432.4,61.86Zm.13-7a2.2,2.2,0,0,0-2.38,2.51c0,1.47.67,2.58,2.29,2.58,1.78,0,2.42-1.06,2.42-2.56S434.14,54.82,432.53,54.82Z"/>
      <path class="d" d="M444.33,61.71h-4.26V53H444c2.18,0,3.43.78,3.43,2.51a1.82,1.82,0,0,1-.85,1.52A2.1,2.1,0,0,1,448,59C448,60.61,447,61.71,444.33,61.71Zm-.67-6.85h-1.1v1.78h1.22c.83,0,1.1-.4,1.1-.93S444.59,54.86,443.66,54.86Zm.5,3.23h-1.6v1.79h1.75c.88,0,1.17-.38,1.17-.9S445.17,58.1,444.16,58.1Z"/>
      <path class="d" d="M455.38,60.35l-1.3-1.44h-.83v2.8h-2.5V53h3.59c2,0,3.55.93,3.55,2.95a2.75,2.75,0,0,1-1.3,2.37l.75.7a3.56,3.56,0,0,0,1.94,1l-.46,1.87A4.47,4.47,0,0,1,455.38,60.35Zm-1.62-3.22c1.18,0,1.58-.4,1.58-1.1S455,55,454.06,55h-.82v2.18Z"/>
      <path class="d" d="M461.63,61.71V53h2.48v8.74Z"/>
      <path class="d" d="M472.09,60.35l-1.3-1.44H470v2.8h-2.5V53h3.59c2,0,3.55.93,3.55,2.95a2.76,2.76,0,0,1-1.3,2.37l.75.7A3.56,3.56,0,0,0,476,60l-.46,1.87A4.47,4.47,0,0,1,472.09,60.35Zm-1.62-3.22c1.18,0,1.58-.4,1.58-1.1S471.68,55,470.78,55H470v2.18Z"/>
    </g>
    <text class="g" transform="translate(416.74 97.71)">possí<tspan class="i" x="32.11" y="0">v</tspan><tspan x="39.14" y="0">eis </tspan><tspan x="-8.72" y="24">p</tspan><tspan class="j" x="-0.75" y="24">r</tspan><tspan x="4.46" y="24">oblemas</tspan></text>
  </g>
</svg>
