<svg xmlns="http://www.w3.org/2000/svg" width="700" height="500" viewBox="0 0 700 500">
  <defs>
    <style>
      .a, .b, .c, .e, .f {
        fill: none;
        stroke: blue;
        stroke-miterlimit: 10;
      }

      .a {
        stroke-width: 2px;
      }

      .c {
        stroke-dasharray: 1 2;
      }

      .d, .g {
        fill: blue;
      }

      .e {
        stroke-width: 0.52px;
      }

      .f {
        stroke-width: 0.5px;
      }

      .g {
        font-size: 16px;
        font-family: FedraSerifB-BookItalic, FedraSerifB Book;
        font-style: italic;
      }

      .h {
        letter-spacing: -0.01em;
      }

      .i {
        letter-spacing: -0.02em;
      }

      .j {
        letter-spacing: -0.01em;
      }
    </style>
  </defs>
  <title>double-diamond</title>
  <g>
    <polygon class="a" points="175.92 454.63 2.03 286 175.92 117.37 349.81 286 175.92 454.63"/>
    <polygon class="a" points="524.08 454.63 350.19 286 524.08 117.37 697.97 286 524.08 454.63"/>
  </g>
  <g>
    <line class="b" x1="176.76" y1="499.17" x2="176.76" y2="498.67"/>
    <line class="c" x1="176.76" y1="496.66" x2="176.76" y2="1.5"/>
    <line class="b" x1="176.76" y1="0.5" x2="176.76"/>
  </g>
  <g>
    <line class="b" x1="350.5" y1="499.58" x2="350.5" y2="499.08"/>
    <line class="c" x1="350.5" y1="497.08" x2="350.5" y2="1.92"/>
    <line class="b" x1="350.5" y1="0.92" x2="350.5" y2="0.42"/>
  </g>
  <g>
    <line class="b" x1="524.24" y1="500" x2="524.24" y2="499.5"/>
    <line class="c" x1="524.24" y1="497.5" x2="524.24" y2="2.33"/>
    <line class="b" x1="524.24" y1="1.33" x2="524.24" y2="0.83"/>
  </g>
  <g>
    <line class="b" x1="697.97" y1="499.58" x2="697.97" y2="499.08"/>
    <line class="c" x1="697.97" y1="497.08" x2="697.97" y2="1.92"/>
    <line class="b" x1="697.97" y1="0.92" x2="697.97" y2="0.42"/>
  </g>
  <g>
    <line class="b" x1="3.03" y1="499.58" x2="3.03" y2="499.08"/>
    <line class="c" x1="3.03" y1="497.08" x2="3.03" y2="1.92"/>
    <line class="b" x1="3.03" y1="0.92" x2="3.03" y2="0.42"/>
  </g>
  <g>
    <path class="d" d="M49.29,36.39H45.91V27.65h3.31c3.07,0,5.28,1.31,5.28,4.35S52.51,36.39,49.29,36.39Zm-.1-6.8h-.82v4.87h1.06c1.9,0,2.59-.8,2.59-2.34S51.18,29.59,49.19,29.59Z"/>
    <path class="d" d="M57.22,36.39V27.65H63.8v1.94H59.7v1.5h3.83v1.84H59.7v1.52h4.39v1.94Z"/>
    <path class="d" d="M66.31,36,67,34.09a8.11,8.11,0,0,0,2.72.42c1.18,0,1.52-.3,1.52-.62,0-.54-1.09-.72-2.21-1.12S66.55,31.67,66.55,30s2-2.43,3.76-2.43a7.23,7.23,0,0,1,3.17.51l-.56,1.81a9.65,9.65,0,0,0-2.54-.34c-1,0-1.07.26-1.07.45,0,.46.9.72,1.9,1.09,1.33.48,2.87,1.12,2.87,2.67,0,2-2.26,2.72-4.32,2.72A7.5,7.5,0,0,1,66.31,36Z"/>
    <path class="d" d="M83,36.33a8.16,8.16,0,0,1-2,.19c-3.28,0-5-1.57-5-4.43,0-3,1.71-4.51,5-4.51a6.64,6.64,0,0,1,2.95.58l-.67,1.78A7.48,7.48,0,0,0,81,29.6,2.19,2.19,0,0,0,78.5,32c0,1.63,1.06,2.5,2.74,2.5a7.59,7.59,0,0,0,2.14-.27c.18.61.37,1.23.54,1.84A6.43,6.43,0,0,1,83,36.33Z"/>
    <path class="d" d="M90.28,36.54c-3.17,0-4.75-1.74-4.75-4.51,0-2.95,1.92-4.48,5-4.48,3.28,0,4.72,1.79,4.72,4.5C95.24,34.94,93.48,36.54,90.28,36.54Zm.13-7A2.2,2.2,0,0,0,88,32c0,1.47.67,2.58,2.29,2.58,1.78,0,2.42-1.06,2.42-2.56S92,29.49,90.41,29.49Z"/>
    <path class="d" d="M102.22,36.39H98V27.65h3.89c2.18,0,3.43.78,3.43,2.51a1.82,1.82,0,0,1-.85,1.52,2.1,2.1,0,0,1,1.44,2C105.87,35.29,104.86,36.39,102.22,36.39Zm-.67-6.85h-1.1v1.78h1.22c.83,0,1.1-.4,1.1-.93S102.47,29.54,101.54,29.54Zm.5,3.23h-1.6v1.79h1.75c.88,0,1.17-.38,1.17-.9S103,32.77,102,32.77Z"/>
    <path class="d" d="M113.26,35,112,33.59h-.83v2.8h-2.5V27.65h3.59c2,0,3.55.93,3.55,2.95a2.75,2.75,0,0,1-1.3,2.37l.75.7a3.56,3.56,0,0,0,1.94,1l-.46,1.87A4.47,4.47,0,0,1,113.26,35Zm-1.62-3.22c1.18,0,1.58-.4,1.58-1.1s-.38-1.07-1.28-1.07h-.82v2.18Z"/>
    <path class="d" d="M119.51,36.39V27.65H122v8.74Z"/>
    <path class="d" d="M130,35l-1.3-1.44h-.83v2.8h-2.5V27.65h3.59c2,0,3.55.93,3.55,2.95a2.76,2.76,0,0,1-1.3,2.37l.75.7a3.56,3.56,0,0,0,1.94,1l-.46,1.87A4.47,4.47,0,0,1,130,35Zm-1.62-3.22c1.18,0,1.58-.4,1.58-1.1s-.38-1.07-1.28-1.07h-.82v2.18Z"/>
  </g>
  <g>
    <path class="d" d="M235.81,36.39h-3.38V27.65h3.31C238.82,27.65,241,29,241,32S239,36.39,235.81,36.39Zm-.1-6.8h-.82v4.87H236c1.9,0,2.59-.8,2.59-2.34S237.7,29.59,235.71,29.59Z"/>
    <path class="d" d="M243.74,36.39V27.65h6.58v1.94h-4.1v1.5H250v1.84h-3.83v1.52h4.39v1.94Z"/>
    <path class="d" d="M256,29.59v2.19h3.71v1.82H256v2.79h-2.48V27.65H260v1.94Z"/>
    <path class="d" d="M262.51,36.39V27.65H265v8.74Z"/>
    <path class="d" d="M274.3,36.39l-3.6-5.22.13,1.09v4.13h-2.48V27.65h2.74l3.6,5.36-.06-.93V27.65h2.48v8.74Z"/>
    <path class="d" d="M280.46,36.39V27.65h2.48v8.74Z"/>
    <path class="d" d="M290.93,35l-1.3-1.44h-.83v2.8h-2.5V27.65h3.59c2,0,3.55.93,3.55,2.95a2.76,2.76,0,0,1-1.3,2.37l.75.7a3.56,3.56,0,0,0,1.94,1l-.46,1.87A4.47,4.47,0,0,1,290.93,35Zm-1.62-3.22c1.18,0,1.58-.4,1.58-1.1s-.38-1.07-1.28-1.07h-.82v2.18Z"/>
  </g>
  <g>
    <path class="d" d="M385.37,36.39H382V27.65h3.31c3.07,0,5.28,1.31,5.28,4.35S388.59,36.39,385.37,36.39Zm-.1-6.8h-.82v4.87h1.06c1.9,0,2.59-.8,2.59-2.34S387.26,29.59,385.27,29.59Z"/>
    <path class="d" d="M393.3,36.39V27.65h6.58v1.94h-4.1v1.5h3.83v1.84h-3.83v1.52h4.39v1.94Z"/>
    <path class="d" d="M402.39,36l.69-1.89a8.11,8.11,0,0,0,2.72.42c1.18,0,1.52-.3,1.52-.62,0-.54-1.09-.72-2.21-1.12s-2.48-1.09-2.48-2.72,2-2.43,3.76-2.43a7.23,7.23,0,0,1,3.17.51L409,29.92a9.65,9.65,0,0,0-2.54-.34c-1,0-1.07.26-1.07.45,0,.46.9.72,1.9,1.09,1.33.48,2.87,1.12,2.87,2.67,0,2-2.26,2.72-4.32,2.72A7.5,7.5,0,0,1,402.39,36Z"/>
    <path class="d" d="M412.71,36.39V27.65h6.58v1.94h-4.1v1.5H419v1.84h-3.83v1.52h4.39v1.94Z"/>
    <path class="d" d="M428.41,36.39l-3.6-5.22.13,1.09v4.13h-2.48V27.65h2.74l3.6,5.36-.06-.93V27.65h2.48v8.74Z"/>
    <path class="d" d="M433.29,27.65h2.61l2,6.9,2.42-6.9h2.55l-3.38,8.74h-3.38Z"/>
    <path class="d" d="M448.6,36.54c-3.17,0-4.75-1.74-4.75-4.51,0-2.95,1.92-4.48,5-4.48,3.28,0,4.72,1.79,4.72,4.5C453.56,34.94,451.8,36.54,448.6,36.54Zm.13-7A2.2,2.2,0,0,0,446.34,32c0,1.47.67,2.58,2.29,2.58,1.78,0,2.42-1.06,2.42-2.56S450.34,29.49,448.73,29.49Z"/>
    <path class="d" d="M456.28,36.39V27.65h2.48v6.79h3.78v2Z"/>
    <path class="d" d="M463,27.65h2.61l2,6.9,2.42-6.9h2.55l-3.38,8.74h-3.38Z"/>
    <path class="d" d="M474.47,36.39V27.65H481v1.94H477v1.5h3.83v1.84H477v1.52h4.39v1.94Z"/>
    <path class="d" d="M488.84,35l-1.3-1.44h-.83v2.8h-2.5V27.65h3.59c2,0,3.55.93,3.55,2.95a2.75,2.75,0,0,1-1.3,2.37l.75.7a3.56,3.56,0,0,0,1.94,1l-.46,1.87A4.47,4.47,0,0,1,488.84,35Zm-1.62-3.22c1.18,0,1.58-.4,1.58-1.1s-.38-1.07-1.28-1.07h-.82v2.18Z"/>
  </g>
  <g>
    <path class="d" d="M338.5,452.12v2.77h-8.74v-2.71c0-2.87,1.49-5,4.34-5C337.17,447.22,338.5,449.15,338.5,452.12Zm-7.7.1v1.44h6.66V452c0-2.21-1.07-3.52-3.22-3.52C331.91,448.46,330.8,449.93,330.8,452.22Z"/>
    <path class="d" d="M338.5,443.74h-8.74v-5.86h1v4.61h2.8v-4.34h1v4.34h2.83v-4.9h1Z"/>
    <path class="d" d="M330.79,432.59h3.15v-4.53h1v4.53h3.54v1.25h-8.74v-6.05h1Z"/>
    <path class="d" d="M338.5,424.48h-8.74v-1.25h8.74Z"/>
    <path class="d" d="M338.5,412.87l-7.35,4.91.59-.06h6.75V419h-8.74v-1.63l7.48-5-.8,0h-6.67v-1.26h8.74Z"/>
    <path class="d" d="M338.5,406.73h-8.74v-1.25h8.74Z"/>
    <path class="d" d="M338.66,397.37a4.52,4.52,0,1,1-9,0,6.74,6.74,0,0,1,.5-2.67l1,.35a7,7,0,0,0-.4,2.29,3.05,3.05,0,0,0,3.35,3.33,3.25,3.25,0,0,0,3.52-3.57,7.87,7.87,0,0,0-.35-2.13l1-.32A7.29,7.29,0,0,1,338.66,397.37Zm3,1.38c-.42-.67-.82-.94-1.23-.94a2.43,2.43,0,0,0-1.07.38V397a2.32,2.32,0,0,1,1.07-.32c.7,0,1.42.45,2,1.7Z"/>
    <path class="d" d="M327.59,389.8a1.46,1.46,0,0,0,.4,1.1l-.74.5a2.33,2.33,0,0,1-.72-1.68c0-.85.59-1.34.59-2a1.94,1.94,0,0,0-.45-1.14l.7-.48a2.25,2.25,0,0,1,.8,1.68C328.18,388.57,327.59,389.1,327.59,389.8Zm2.18-.19v-1.87l8.74-3v1.38l-2.91,1v3.63l2.91,1.15v1.31Zm4.8-2.22-4.07,1.34,4.07,1.57Z"/>
    <path class="d" d="M338.61,378.83a4.14,4.14,0,0,1-4.5,4.39,4.27,4.27,0,0,1-4.48-4.61c0-2.9,2-4.37,4.5-4.37A4.22,4.22,0,0,1,338.61,378.83Zm-7.92-.11A3.09,3.09,0,0,0,334.1,382c1.9,0,3.47-1.06,3.47-3.17s-1.47-3.3-3.44-3.3A3.12,3.12,0,0,0,330.69,378.72Z"/>
  </g>
  <g>
    <path class="d" d="M570.84,36.39V27.65h6.58v1.94h-4.1v1.5h3.83v1.84h-3.83v1.52h4.39v1.94Z"/>
    <path class="d" d="M586.54,36.39l-3.6-5.22.13,1.09v4.13h-2.48V27.65h2.74l3.6,5.36-.06-.93V27.65h2.48v8.74Z"/>
    <path class="d" d="M596.79,29.59v6.8h-2.48v-6.8h-2.74V27.65h8v1.94Z"/>
    <path class="d" d="M606.39,35l-1.3-1.44h-.83v2.8h-2.5V27.65h3.59c2,0,3.55.93,3.55,2.95a2.75,2.75,0,0,1-1.3,2.37l.75.7a3.56,3.56,0,0,0,1.94,1l-.46,1.87A4.47,4.47,0,0,1,606.39,35Zm-1.62-3.22c1.18,0,1.58-.4,1.58-1.1s-.38-1.07-1.28-1.07h-.82v2.18Z"/>
    <path class="d" d="M612.65,36.39V27.65h6.58v1.94h-4.1v1.5H619v1.84h-3.83v1.52h4.39v1.94Z"/>
    <path class="d" d="M628.73,36.3a8.24,8.24,0,0,1-2,.22c-3,0-5-1.41-5-4.43s1.82-4.51,5.07-4.51a6.66,6.66,0,0,1,2.85.58L629,29.92a7.6,7.6,0,0,0-2.21-.32c-1.47,0-2.53.64-2.53,2.37a2.39,2.39,0,0,0,2.69,2.5,2.58,2.58,0,0,0,.35,0V32h2.48V36A8.57,8.57,0,0,1,628.73,36.3Z"/>
    <path class="d" d="M634.71,27.65H638l2.91,8.74h-2.66l-.53-1.86h-3.17L634,36.39h-2.58Zm2.48,5.07-.93-3.28-1.09,3.28Z"/>
    <path class="d" d="M647.46,35l-1.3-1.44h-.83v2.8h-2.5V27.65h3.59c2,0,3.55.93,3.55,2.95a2.76,2.76,0,0,1-1.3,2.37l.75.7a3.56,3.56,0,0,0,1.94,1l-.46,1.87A4.47,4.47,0,0,1,647.46,35Zm-1.62-3.22c1.18,0,1.58-.4,1.58-1.1s-.38-1.07-1.28-1.07h-.82v2.18Z"/>
  </g>
  <g>
    <g>
      <line class="e" x1="21.09" y1="295.05" x2="34.67" y2="301.49"/>
      <line class="e" x1="20.75" y1="285.99" x2="34.3" y2="285.88"/>
      <line class="e" x1="20.41" y1="276.93" x2="33.93" y2="270.26"/>
    </g>
    <g>
      <line class="e" x1="37.78" y1="262.95" x2="50.51" y2="254.74"/>
      <line class="e" x1="37.63" y1="272.1" x2="50.36" y2="267.19"/>
      <line class="e" x1="37.49" y1="281.26" x2="50.22" y2="279.65"/>
      <line class="e" x1="37.34" y1="290.42" x2="50.07" y2="292.1"/>
      <line class="e" x1="37.19" y1="299.58" x2="49.92" y2="304.56"/>
      <line class="e" x1="37.04" y1="308.74" x2="49.77" y2="317.01"/>
    </g>
    <g>
      <line class="e" x1="53.89" y1="248.54" x2="66.35" y2="239.54"/>
      <line class="e" x1="53.78" y1="259.2" x2="66.25" y2="252.78"/>
      <line class="e" x1="53.67" y1="269.86" x2="66.14" y2="266.02"/>
      <line class="e" x1="53.57" y1="280.52" x2="66.04" y2="279.26"/>
      <line class="e" x1="53.46" y1="291.17" x2="65.93" y2="292.49"/>
      <line class="e" x1="53.36" y1="301.83" x2="65.83" y2="305.73"/>
      <line class="e" x1="53.25" y1="312.49" x2="65.72" y2="318.97"/>
      <line class="e" x1="53.14" y1="323.15" x2="65.62" y2="332.21"/>
    </g>
    <g>
      <line class="e" x1="69.74" y1="233.83" x2="82.2" y2="224.24"/>
      <line class="e" x1="69.66" y1="245.39" x2="82.12" y2="237.93"/>
      <line class="e" x1="69.58" y1="256.95" x2="82.03" y2="251.63"/>
      <line class="e" x1="69.5" y1="268.51" x2="81.95" y2="265.33"/>
      <line class="e" x1="69.41" y1="280.07" x2="81.87" y2="279.03"/>
      <line class="e" x1="69.33" y1="291.63" x2="81.79" y2="292.72"/>
      <line class="e" x1="69.25" y1="303.19" x2="81.7" y2="306.42"/>
      <line class="e" x1="69.17" y1="314.75" x2="81.62" y2="320.12"/>
      <line class="e" x1="69.08" y1="326.31" x2="81.54" y2="333.82"/>
      <line class="e" x1="69" y1="337.87" x2="81.46" y2="347.51"/>
    </g>
    <g>
      <line class="e" x1="85.43" y1="219.23" x2="98.04" y2="209.14"/>
      <line class="e" x1="85.37" y1="230.34" x2="97.98" y2="221.93"/>
      <line class="e" x1="85.31" y1="241.44" x2="97.92" y2="234.72"/>
      <line class="e" x1="85.25" y1="252.54" x2="97.86" y2="247.51"/>
      <line class="e" x1="85.18" y1="263.65" x2="97.79" y2="260.3"/>
      <line class="e" x1="85.12" y1="274.75" x2="97.73" y2="273.09"/>
      <line class="e" x1="85.06" y1="285.85" x2="97.67" y2="285.88"/>
      <line class="e" x1="85" y1="296.95" x2="97.61" y2="298.66"/>
      <line class="e" x1="84.94" y1="308.06" x2="97.55" y2="311.45"/>
      <line class="e" x1="84.88" y1="319.16" x2="97.49" y2="324.24"/>
      <line class="e" x1="84.81" y1="330.26" x2="97.42" y2="337.03"/>
      <line class="e" x1="84.75" y1="341.37" x2="97.36" y2="349.82"/>
      <line class="e" x1="84.69" y1="352.47" x2="97.3" y2="362.61"/>
    </g>
    <g>
      <line class="e" x1="101.02" y1="204.41" x2="113.88" y2="193.8"/>
      <line class="e" x1="100.96" y1="216.04" x2="113.83" y2="206.95"/>
      <line class="e" x1="100.91" y1="227.68" x2="113.78" y2="220.11"/>
      <line class="e" x1="100.86" y1="239.31" x2="113.72" y2="233.26"/>
      <line class="e" x1="100.81" y1="250.95" x2="113.67" y2="246.41"/>
      <line class="e" x1="100.75" y1="262.58" x2="113.62" y2="259.57"/>
      <line class="e" x1="100.7" y1="274.22" x2="113.57" y2="272.72"/>
      <line class="e" x1="100.65" y1="285.85" x2="113.51" y2="285.88"/>
      <line class="e" x1="100.6" y1="297.49" x2="113.46" y2="299.03"/>
      <line class="e" x1="100.54" y1="309.13" x2="113.41" y2="312.18"/>
      <line class="e" x1="100.49" y1="320.76" x2="113.36" y2="325.34"/>
      <line class="e" x1="100.44" y1="332.4" x2="113.3" y2="338.49"/>
      <line class="e" x1="100.38" y1="344.03" x2="113.25" y2="351.64"/>
      <line class="e" x1="100.33" y1="355.67" x2="113.2" y2="364.8"/>
      <line class="e" x1="100.28" y1="367.3" x2="113.14" y2="377.95"/>
    </g>
    <g>
      <line class="e" x1="116.52" y1="189.36" x2="129.73" y2="178.22"/>
      <line class="e" x1="116.48" y1="200.71" x2="129.68" y2="190.88"/>
      <line class="e" x1="116.43" y1="212.07" x2="129.64" y2="203.55"/>
      <line class="e" x1="116.39" y1="223.42" x2="129.6" y2="216.21"/>
      <line class="e" x1="116.35" y1="234.77" x2="129.55" y2="228.88"/>
      <line class="e" x1="116.31" y1="246.12" x2="129.51" y2="241.54"/>
      <line class="e" x1="116.26" y1="257.48" x2="129.47" y2="254.21"/>
      <line class="e" x1="116.22" y1="268.83" x2="129.42" y2="266.88"/>
      <line class="e" x1="116.18" y1="280.18" x2="129.38" y2="279.54"/>
      <line class="e" x1="116.13" y1="291.53" x2="129.33" y2="292.21"/>
      <line class="e" x1="116.09" y1="302.89" x2="129.29" y2="304.87"/>
      <line class="e" x1="116.05" y1="314.24" x2="129.25" y2="317.54"/>
      <line class="e" x1="116" y1="325.59" x2="129.2" y2="330.21"/>
      <line class="e" x1="115.96" y1="336.94" x2="129.16" y2="342.87"/>
      <line class="e" x1="115.92" y1="348.3" x2="129.12" y2="355.54"/>
      <line class="e" x1="115.87" y1="359.65" x2="129.07" y2="368.2"/>
      <line class="e" x1="115.83" y1="371" x2="129.03" y2="380.87"/>
      <line class="e" x1="115.79" y1="382.35" x2="128.99" y2="393.53"/>
    </g>
    <g>
      <line class="e" x1="131.95" y1="174.29" x2="145.57" y2="162.58"/>
      <line class="e" x1="131.91" y1="185.45" x2="145.53" y2="174.91"/>
      <line class="e" x1="131.88" y1="196.61" x2="145.5" y2="187.24"/>
      <line class="e" x1="131.84" y1="207.76" x2="145.46" y2="199.57"/>
      <line class="e" x1="131.8" y1="218.92" x2="145.42" y2="211.9"/>
      <line class="e" x1="131.77" y1="230.08" x2="145.38" y2="224.23"/>
      <line class="e" x1="131.73" y1="241.23" x2="145.35" y2="236.56"/>
      <line class="e" x1="131.7" y1="252.39" x2="145.31" y2="248.89"/>
      <line class="e" x1="131.66" y1="263.55" x2="145.27" y2="261.22"/>
      <line class="e" x1="131.62" y1="274.7" x2="145.24" y2="273.55"/>
      <line class="e" x1="131.59" y1="285.86" x2="145.2" y2="285.88"/>
      <line class="e" x1="131.55" y1="297.02" x2="145.16" y2="298.2"/>
      <line class="e" x1="131.51" y1="308.17" x2="145.13" y2="310.53"/>
      <line class="e" x1="131.48" y1="319.33" x2="145.09" y2="322.86"/>
      <line class="e" x1="131.44" y1="330.49" x2="145.05" y2="335.19"/>
      <line class="e" x1="131.4" y1="341.64" x2="145.01" y2="347.52"/>
      <line class="e" x1="131.37" y1="352.8" x2="144.98" y2="359.85"/>
      <line class="e" x1="131.33" y1="363.96" x2="144.94" y2="372.18"/>
      <line class="e" x1="131.29" y1="375.11" x2="144.9" y2="384.51"/>
      <line class="e" x1="131.26" y1="386.27" x2="144.87" y2="396.84"/>
      <line class="e" x1="131.22" y1="397.43" x2="144.83" y2="409.17"/>
    </g>
    <g>
      <line class="e" x1="147.32" y1="159.69" x2="161.41" y2="147.43"/>
      <line class="e" x1="147.28" y1="171.16" x2="161.38" y2="160.02"/>
      <line class="e" x1="147.25" y1="182.63" x2="161.34" y2="172.61"/>
      <line class="e" x1="147.22" y1="194.1" x2="161.31" y2="185.19"/>
      <line class="e" x1="147.18" y1="205.57" x2="161.28" y2="197.78"/>
      <line class="e" x1="147.15" y1="217.04" x2="161.24" y2="210.36"/>
      <line class="e" x1="147.12" y1="228.51" x2="161.21" y2="222.95"/>
      <line class="e" x1="147.08" y1="239.98" x2="161.18" y2="235.53"/>
      <line class="e" x1="147.05" y1="251.45" x2="161.14" y2="248.12"/>
      <line class="e" x1="147.02" y1="262.92" x2="161.11" y2="260.7"/>
      <line class="e" x1="146.98" y1="274.39" x2="161.08" y2="273.29"/>
      <line class="e" x1="146.95" y1="285.86" x2="161.04" y2="285.88"/>
      <line class="e" x1="146.92" y1="297.33" x2="161.01" y2="298.46"/>
      <line class="e" x1="146.89" y1="308.8" x2="160.98" y2="311.05"/>
      <line class="e" x1="146.85" y1="320.27" x2="160.94" y2="323.63"/>
      <line class="e" x1="146.82" y1="331.74" x2="160.91" y2="336.22"/>
      <line class="e" x1="146.79" y1="343.21" x2="160.87" y2="348.8"/>
      <line class="e" x1="146.75" y1="354.68" x2="160.84" y2="361.39"/>
      <line class="e" x1="146.72" y1="366.15" x2="160.81" y2="373.97"/>
      <line class="e" x1="146.69" y1="377.62" x2="160.77" y2="386.56"/>
      <line class="e" x1="146.65" y1="389.09" x2="160.74" y2="399.14"/>
      <line class="e" x1="146.62" y1="400.56" x2="160.71" y2="411.73"/>
      <line class="e" x1="146.59" y1="412.03" x2="160.67" y2="424.32"/>
    </g>
    <g>
      <line class="e" x1="162.63" y1="145.13" x2="177.25" y2="132.3"/>
      <line class="e" x1="162.6" y1="156.39" x2="177.23" y2="144.59"/>
      <line class="e" x1="162.57" y1="167.64" x2="177.2" y2="156.87"/>
      <line class="e" x1="162.55" y1="178.9" x2="177.17" y2="169.16"/>
      <line class="e" x1="162.52" y1="190.16" x2="177.14" y2="181.44"/>
      <line class="e" x1="162.49" y1="201.42" x2="177.11" y2="193.73"/>
      <line class="e" x1="162.46" y1="212.68" x2="177.08" y2="206.02"/>
      <line class="e" x1="162.43" y1="223.94" x2="177.05" y2="218.3"/>
      <line class="e" x1="162.4" y1="235.2" x2="177.02" y2="230.59"/>
      <line class="e" x1="162.37" y1="246.46" x2="176.99" y2="242.87"/>
      <line class="e" x1="162.34" y1="257.72" x2="176.96" y2="255.16"/>
      <line class="e" x1="162.31" y1="268.98" x2="176.93" y2="267.45"/>
      <line class="e" x1="162.29" y1="280.24" x2="176.9" y2="279.73"/>
      <line class="e" x1="162.26" y1="291.49" x2="176.87" y2="292.02"/>
      <line class="e" x1="162.23" y1="302.75" x2="176.84" y2="304.3"/>
      <line class="e" x1="162.2" y1="314.01" x2="176.81" y2="316.59"/>
      <line class="e" x1="162.17" y1="325.27" x2="176.78" y2="328.88"/>
      <line class="e" x1="162.14" y1="336.53" x2="176.75" y2="341.16"/>
      <line class="e" x1="162.11" y1="347.79" x2="176.72" y2="353.45"/>
      <line class="e" x1="162.08" y1="359.05" x2="176.69" y2="365.73"/>
      <line class="e" x1="162.05" y1="370.31" x2="176.66" y2="378.02"/>
      <line class="e" x1="162.02" y1="381.57" x2="176.63" y2="390.31"/>
      <line class="e" x1="162" y1="392.83" x2="176.6" y2="402.59"/>
      <line class="e" x1="161.97" y1="404.08" x2="176.57" y2="414.88"/>
      <line class="e" x1="161.94" y1="415.34" x2="176.55" y2="427.16"/>
      <line class="e" x1="161.91" y1="426.6" x2="176.52" y2="439.45"/>
    </g>
  </g>
  <g>
    <g>
      <line class="e" x1="332.68" y1="276.7" x2="319.1" y2="270.26"/>
      <line class="e" x1="333.02" y1="285.76" x2="319.47" y2="285.88"/>
      <line class="e" x1="333.36" y1="294.82" x2="319.84" y2="301.49"/>
    </g>
    <g>
      <line class="e" x1="315.99" y1="308.81" x2="303.26" y2="317.01"/>
      <line class="e" x1="316.14" y1="299.65" x2="303.41" y2="304.56"/>
      <line class="e" x1="316.29" y1="290.49" x2="303.55" y2="292.1"/>
      <line class="e" x1="316.43" y1="281.33" x2="303.7" y2="279.65"/>
      <line class="e" x1="316.58" y1="272.17" x2="303.85" y2="267.19"/>
      <line class="e" x1="316.73" y1="263.01" x2="304" y2="254.74"/>
    </g>
    <g>
      <line class="e" x1="299.88" y1="323.21" x2="287.42" y2="332.21"/>
      <line class="e" x1="299.99" y1="312.55" x2="287.52" y2="318.97"/>
      <line class="e" x1="300.1" y1="301.89" x2="287.63" y2="305.73"/>
      <line class="e" x1="300.2" y1="291.23" x2="287.73" y2="292.49"/>
      <line class="e" x1="300.31" y1="280.58" x2="287.84" y2="279.26"/>
      <line class="e" x1="300.42" y1="269.92" x2="287.94" y2="266.02"/>
      <line class="e" x1="300.52" y1="259.26" x2="288.05" y2="252.78"/>
      <line class="e" x1="300.63" y1="248.6" x2="288.16" y2="239.54"/>
    </g>
    <g>
      <line class="e" x1="284.03" y1="337.92" x2="271.57" y2="347.51"/>
      <line class="e" x1="284.11" y1="326.36" x2="271.66" y2="333.82"/>
      <line class="e" x1="284.19" y1="314.8" x2="271.74" y2="320.12"/>
      <line class="e" x1="284.28" y1="303.24" x2="271.82" y2="306.42"/>
      <line class="e" x1="284.36" y1="291.68" x2="271.9" y2="292.72"/>
      <line class="e" x1="284.44" y1="280.12" x2="271.98" y2="279.03"/>
      <line class="e" x1="284.52" y1="268.56" x2="272.07" y2="265.33"/>
      <line class="e" x1="284.61" y1="257" x2="272.15" y2="251.63"/>
      <line class="e" x1="284.69" y1="245.44" x2="272.23" y2="237.93"/>
      <line class="e" x1="284.77" y1="233.88" x2="272.31" y2="224.24"/>
    </g>
    <g>
      <line class="e" x1="268.34" y1="352.52" x2="255.73" y2="362.61"/>
      <line class="e" x1="268.4" y1="341.41" x2="255.79" y2="349.82"/>
      <line class="e" x1="268.46" y1="330.31" x2="255.85" y2="337.03"/>
      <line class="e" x1="268.53" y1="319.21" x2="255.92" y2="324.24"/>
      <line class="e" x1="268.59" y1="308.1" x2="255.98" y2="311.45"/>
      <line class="e" x1="268.65" y1="297" x2="256.04" y2="298.66"/>
      <line class="e" x1="268.71" y1="285.9" x2="256.1" y2="285.88"/>
      <line class="e" x1="268.77" y1="274.8" x2="256.16" y2="273.09"/>
      <line class="e" x1="268.83" y1="263.69" x2="256.22" y2="260.3"/>
      <line class="e" x1="268.9" y1="252.59" x2="256.28" y2="247.51"/>
      <line class="e" x1="268.96" y1="241.49" x2="256.35" y2="234.72"/>
      <line class="e" x1="269.02" y1="230.38" x2="256.41" y2="221.93"/>
      <line class="e" x1="269.08" y1="219.28" x2="256.47" y2="209.14"/>
    </g>
    <g>
      <line class="e" x1="252.75" y1="367.34" x2="239.89" y2="377.95"/>
      <line class="e" x1="252.81" y1="355.71" x2="239.94" y2="364.8"/>
      <line class="e" x1="252.86" y1="344.07" x2="239.99" y2="351.64"/>
      <line class="e" x1="252.91" y1="332.44" x2="240.05" y2="338.49"/>
      <line class="e" x1="252.96" y1="320.8" x2="240.1" y2="325.34"/>
      <line class="e" x1="253.02" y1="309.17" x2="240.15" y2="312.18"/>
      <line class="e" x1="253.07" y1="297.53" x2="240.2" y2="299.03"/>
      <line class="e" x1="253.12" y1="285.9" x2="240.26" y2="285.88"/>
      <line class="e" x1="253.17" y1="274.26" x2="240.31" y2="272.72"/>
      <line class="e" x1="253.23" y1="262.62" x2="240.36" y2="259.57"/>
      <line class="e" x1="253.28" y1="250.99" x2="240.42" y2="246.41"/>
      <line class="e" x1="253.33" y1="239.35" x2="240.47" y2="233.26"/>
      <line class="e" x1="253.39" y1="227.72" x2="240.52" y2="220.11"/>
      <line class="e" x1="253.44" y1="216.08" x2="240.57" y2="206.95"/>
      <line class="e" x1="253.49" y1="204.45" x2="240.63" y2="193.8"/>
    </g>
    <g>
      <line class="e" x1="237.25" y1="382.39" x2="224.04" y2="393.53"/>
      <line class="e" x1="237.29" y1="371.04" x2="224.09" y2="380.87"/>
      <line class="e" x1="237.34" y1="359.68" x2="224.13" y2="368.2"/>
      <line class="e" x1="237.38" y1="348.33" x2="224.18" y2="355.54"/>
      <line class="e" x1="237.42" y1="336.98" x2="224.22" y2="342.87"/>
      <line class="e" x1="237.47" y1="325.63" x2="224.26" y2="330.21"/>
      <line class="e" x1="237.51" y1="314.27" x2="224.31" y2="317.54"/>
      <line class="e" x1="237.55" y1="302.92" x2="224.35" y2="304.87"/>
      <line class="e" x1="237.6" y1="291.57" x2="224.39" y2="292.21"/>
      <line class="e" x1="237.64" y1="280.22" x2="224.44" y2="279.54"/>
      <line class="e" x1="237.68" y1="268.86" x2="224.48" y2="266.88"/>
      <line class="e" x1="237.73" y1="257.51" x2="224.52" y2="254.21"/>
      <line class="e" x1="237.77" y1="246.16" x2="224.57" y2="241.54"/>
      <line class="e" x1="237.81" y1="234.81" x2="224.61" y2="228.88"/>
      <line class="e" x1="237.85" y1="223.45" x2="224.65" y2="216.21"/>
      <line class="e" x1="237.9" y1="212.1" x2="224.7" y2="203.55"/>
      <line class="e" x1="237.94" y1="200.75" x2="224.74" y2="190.88"/>
      <line class="e" x1="237.98" y1="189.4" x2="224.78" y2="178.22"/>
    </g>
    <g>
      <line class="e" x1="221.82" y1="397.46" x2="208.2" y2="409.17"/>
      <line class="e" x1="221.86" y1="386.3" x2="208.24" y2="396.84"/>
      <line class="e" x1="221.89" y1="375.14" x2="208.28" y2="384.51"/>
      <line class="e" x1="221.93" y1="363.99" x2="208.31" y2="372.18"/>
      <line class="e" x1="221.97" y1="352.83" x2="208.35" y2="359.85"/>
      <line class="e" x1="222" y1="341.67" x2="208.39" y2="347.52"/>
      <line class="e" x1="222.04" y1="330.52" x2="208.42" y2="335.19"/>
      <line class="e" x1="222.08" y1="319.36" x2="208.46" y2="322.86"/>
      <line class="e" x1="222.11" y1="308.2" x2="208.5" y2="310.53"/>
      <line class="e" x1="222.15" y1="297.05" x2="208.53" y2="298.2"/>
      <line class="e" x1="222.19" y1="285.89" x2="208.57" y2="285.88"/>
      <line class="e" x1="222.22" y1="274.73" x2="208.61" y2="273.55"/>
      <line class="e" x1="222.26" y1="263.58" x2="208.65" y2="261.22"/>
      <line class="e" x1="222.3" y1="252.42" x2="208.68" y2="248.89"/>
      <line class="e" x1="222.33" y1="241.26" x2="208.72" y2="236.56"/>
      <line class="e" x1="222.37" y1="230.11" x2="208.76" y2="224.23"/>
      <line class="e" x1="222.4" y1="218.95" x2="208.79" y2="211.9"/>
      <line class="e" x1="222.44" y1="207.79" x2="208.83" y2="199.57"/>
      <line class="e" x1="222.48" y1="196.64" x2="208.87" y2="187.24"/>
      <line class="e" x1="222.51" y1="185.48" x2="208.9" y2="174.91"/>
      <line class="e" x1="222.55" y1="174.32" x2="208.94" y2="162.58"/>
    </g>
    <g>
      <line class="e" x1="206.46" y1="412.06" x2="192.36" y2="424.32"/>
      <line class="e" x1="206.49" y1="400.59" x2="192.39" y2="411.73"/>
      <line class="e" x1="206.52" y1="389.12" x2="192.43" y2="399.14"/>
      <line class="e" x1="206.55" y1="377.65" x2="192.46" y2="386.56"/>
      <line class="e" x1="206.59" y1="366.18" x2="192.49" y2="373.97"/>
      <line class="e" x1="206.62" y1="354.71" x2="192.53" y2="361.39"/>
      <line class="e" x1="206.65" y1="343.24" x2="192.56" y2="348.8"/>
      <line class="e" x1="206.69" y1="331.77" x2="192.59" y2="336.22"/>
      <line class="e" x1="206.72" y1="320.3" x2="192.63" y2="323.63"/>
      <line class="e" x1="206.75" y1="308.83" x2="192.66" y2="311.05"/>
      <line class="e" x1="206.79" y1="297.36" x2="192.69" y2="298.46"/>
      <line class="e" x1="206.82" y1="285.89" x2="192.73" y2="285.88"/>
      <line class="e" x1="206.85" y1="274.42" x2="192.76" y2="273.29"/>
      <line class="e" x1="206.89" y1="262.95" x2="192.8" y2="260.7"/>
      <line class="e" x1="206.92" y1="251.48" x2="192.83" y2="248.12"/>
      <line class="e" x1="206.95" y1="240.01" x2="192.86" y2="235.53"/>
      <line class="e" x1="206.98" y1="228.54" x2="192.9" y2="222.95"/>
      <line class="e" x1="207.02" y1="217.07" x2="192.93" y2="210.36"/>
      <line class="e" x1="207.05" y1="205.6" x2="192.96" y2="197.78"/>
      <line class="e" x1="207.08" y1="194.13" x2="193" y2="185.19"/>
      <line class="e" x1="207.12" y1="182.66" x2="193.03" y2="172.61"/>
      <line class="e" x1="207.15" y1="171.19" x2="193.06" y2="160.02"/>
      <line class="e" x1="207.18" y1="159.72" x2="193.1" y2="147.43"/>
    </g>
    <g>
      <line class="e" x1="191.14" y1="426.62" x2="176.52" y2="439.45"/>
      <line class="e" x1="191.17" y1="415.36" x2="176.55" y2="427.16"/>
      <line class="e" x1="191.2" y1="404.11" x2="176.57" y2="414.88"/>
      <line class="e" x1="191.22" y1="392.85" x2="176.6" y2="402.59"/>
      <line class="e" x1="191.25" y1="381.59" x2="176.63" y2="390.31"/>
      <line class="e" x1="191.28" y1="370.33" x2="176.66" y2="378.02"/>
      <line class="e" x1="191.31" y1="359.07" x2="176.69" y2="365.73"/>
      <line class="e" x1="191.34" y1="347.81" x2="176.72" y2="353.45"/>
      <line class="e" x1="191.37" y1="336.55" x2="176.75" y2="341.16"/>
      <line class="e" x1="191.4" y1="325.29" x2="176.78" y2="328.88"/>
      <line class="e" x1="191.43" y1="314.03" x2="176.81" y2="316.59"/>
      <line class="e" x1="191.46" y1="302.77" x2="176.84" y2="304.3"/>
      <line class="e" x1="191.49" y1="291.51" x2="176.87" y2="292.02"/>
      <line class="e" x1="191.51" y1="280.26" x2="176.9" y2="279.73"/>
      <line class="e" x1="191.54" y1="269" x2="176.93" y2="267.45"/>
      <line class="e" x1="191.57" y1="257.74" x2="176.96" y2="255.16"/>
      <line class="e" x1="191.6" y1="246.48" x2="176.99" y2="242.87"/>
      <line class="e" x1="191.63" y1="235.22" x2="177.02" y2="230.59"/>
      <line class="e" x1="191.66" y1="223.96" x2="177.05" y2="218.3"/>
      <line class="e" x1="191.69" y1="212.7" x2="177.08" y2="206.02"/>
      <line class="e" x1="191.72" y1="201.44" x2="177.11" y2="193.73"/>
      <line class="e" x1="191.75" y1="190.18" x2="177.14" y2="181.44"/>
      <line class="e" x1="191.78" y1="178.92" x2="177.17" y2="169.16"/>
      <line class="e" x1="191.8" y1="167.67" x2="177.2" y2="156.87"/>
      <line class="e" x1="191.83" y1="156.41" x2="177.23" y2="144.59"/>
      <line class="e" x1="191.86" y1="145.15" x2="177.25" y2="132.3"/>
    </g>
  </g>
  <g>
    <g>
      <line class="e" x1="368.63" y1="295.05" x2="382.21" y2="301.49"/>
      <line class="e" x1="368.29" y1="285.99" x2="381.84" y2="285.88"/>
      <line class="e" x1="367.95" y1="276.93" x2="381.47" y2="270.26"/>
    </g>
    <g>
      <line class="e" x1="385.32" y1="262.95" x2="398.05" y2="254.74"/>
      <line class="e" x1="385.17" y1="272.1" x2="397.9" y2="267.19"/>
      <line class="e" x1="385.02" y1="281.26" x2="397.75" y2="279.65"/>
      <line class="e" x1="384.88" y1="290.42" x2="397.61" y2="292.1"/>
      <line class="e" x1="384.73" y1="299.58" x2="397.46" y2="304.56"/>
      <line class="e" x1="384.58" y1="308.74" x2="397.31" y2="317.01"/>
    </g>
    <g>
      <line class="e" x1="401.43" y1="248.54" x2="413.89" y2="239.54"/>
      <line class="e" x1="401.32" y1="259.2" x2="413.79" y2="252.78"/>
      <line class="e" x1="401.21" y1="269.86" x2="413.68" y2="266.02"/>
      <line class="e" x1="401.11" y1="280.52" x2="413.58" y2="279.26"/>
      <line class="e" x1="401" y1="291.17" x2="413.47" y2="292.49"/>
      <line class="e" x1="400.89" y1="301.83" x2="413.37" y2="305.73"/>
      <line class="e" x1="400.79" y1="312.49" x2="413.26" y2="318.97"/>
      <line class="e" x1="400.68" y1="323.15" x2="413.15" y2="332.21"/>
    </g>
    <g>
      <line class="e" x1="417.28" y1="233.83" x2="429.74" y2="224.24"/>
      <line class="e" x1="417.2" y1="245.39" x2="429.65" y2="237.93"/>
      <line class="e" x1="417.12" y1="256.95" x2="429.57" y2="251.63"/>
      <line class="e" x1="417.03" y1="268.51" x2="429.49" y2="265.33"/>
      <line class="e" x1="416.95" y1="280.07" x2="429.41" y2="279.03"/>
      <line class="e" x1="416.87" y1="291.63" x2="429.33" y2="292.72"/>
      <line class="e" x1="416.79" y1="303.19" x2="429.24" y2="306.42"/>
      <line class="e" x1="416.7" y1="314.75" x2="429.16" y2="320.12"/>
      <line class="e" x1="416.62" y1="326.31" x2="429.08" y2="333.82"/>
      <line class="e" x1="416.54" y1="337.87" x2="429" y2="347.51"/>
    </g>
    <g>
      <line class="e" x1="432.97" y1="219.23" x2="445.58" y2="209.14"/>
      <line class="e" x1="432.91" y1="230.34" x2="445.52" y2="221.93"/>
      <line class="e" x1="432.85" y1="241.44" x2="445.46" y2="234.72"/>
      <line class="e" x1="432.78" y1="252.54" x2="445.39" y2="247.51"/>
      <line class="e" x1="432.72" y1="263.65" x2="445.33" y2="260.3"/>
      <line class="e" x1="432.66" y1="274.75" x2="445.27" y2="273.09"/>
      <line class="e" x1="432.6" y1="285.85" x2="445.21" y2="285.88"/>
      <line class="e" x1="432.54" y1="296.95" x2="445.15" y2="298.66"/>
      <line class="e" x1="432.48" y1="308.06" x2="445.09" y2="311.45"/>
      <line class="e" x1="432.41" y1="319.16" x2="445.02" y2="324.24"/>
      <line class="e" x1="432.35" y1="330.26" x2="444.96" y2="337.03"/>
      <line class="e" x1="432.29" y1="341.37" x2="444.9" y2="349.82"/>
      <line class="e" x1="432.23" y1="352.47" x2="444.84" y2="362.61"/>
    </g>
    <g>
      <line class="e" x1="448.56" y1="204.41" x2="461.42" y2="193.8"/>
      <line class="e" x1="448.5" y1="216.04" x2="461.37" y2="206.95"/>
      <line class="e" x1="448.45" y1="227.68" x2="461.32" y2="220.11"/>
      <line class="e" x1="448.4" y1="239.31" x2="461.26" y2="233.26"/>
      <line class="e" x1="448.35" y1="250.95" x2="461.21" y2="246.41"/>
      <line class="e" x1="448.29" y1="262.58" x2="461.16" y2="259.57"/>
      <line class="e" x1="448.24" y1="274.22" x2="461.11" y2="272.72"/>
      <line class="e" x1="448.19" y1="285.85" x2="461.05" y2="285.88"/>
      <line class="e" x1="448.13" y1="297.49" x2="461" y2="299.03"/>
      <line class="e" x1="448.08" y1="309.13" x2="460.95" y2="312.18"/>
      <line class="e" x1="448.03" y1="320.76" x2="460.89" y2="325.34"/>
      <line class="e" x1="447.98" y1="332.4" x2="460.84" y2="338.49"/>
      <line class="e" x1="447.92" y1="344.03" x2="460.79" y2="351.64"/>
      <line class="e" x1="447.87" y1="355.67" x2="460.74" y2="364.8"/>
      <line class="e" x1="447.82" y1="367.3" x2="460.68" y2="377.95"/>
    </g>
    <g>
      <line class="e" x1="464.06" y1="189.36" x2="477.27" y2="178.22"/>
      <line class="e" x1="464.02" y1="200.71" x2="477.22" y2="190.88"/>
      <line class="e" x1="463.97" y1="212.07" x2="477.18" y2="203.55"/>
      <line class="e" x1="463.93" y1="223.42" x2="477.13" y2="216.21"/>
      <line class="e" x1="463.89" y1="234.77" x2="477.09" y2="228.88"/>
      <line class="e" x1="463.84" y1="246.12" x2="477.05" y2="241.54"/>
      <line class="e" x1="463.8" y1="257.48" x2="477" y2="254.21"/>
      <line class="e" x1="463.76" y1="268.83" x2="476.96" y2="266.88"/>
      <line class="e" x1="463.71" y1="280.18" x2="476.92" y2="279.54"/>
      <line class="e" x1="463.67" y1="291.53" x2="476.87" y2="292.21"/>
      <line class="e" x1="463.63" y1="302.89" x2="476.83" y2="304.87"/>
      <line class="e" x1="463.58" y1="314.24" x2="476.79" y2="317.54"/>
      <line class="e" x1="463.54" y1="325.59" x2="476.74" y2="330.21"/>
      <line class="e" x1="463.5" y1="336.94" x2="476.7" y2="342.87"/>
      <line class="e" x1="463.45" y1="348.3" x2="476.66" y2="355.54"/>
      <line class="e" x1="463.41" y1="359.65" x2="476.61" y2="368.2"/>
      <line class="e" x1="463.37" y1="371" x2="476.57" y2="380.87"/>
      <line class="e" x1="463.33" y1="382.35" x2="476.53" y2="393.53"/>
    </g>
    <g>
      <line class="e" x1="479.49" y1="174.29" x2="493.11" y2="162.58"/>
      <line class="e" x1="479.45" y1="185.45" x2="493.07" y2="174.91"/>
      <line class="e" x1="479.42" y1="196.61" x2="493.03" y2="187.24"/>
      <line class="e" x1="479.38" y1="207.76" x2="493" y2="199.57"/>
      <line class="e" x1="479.34" y1="218.92" x2="492.96" y2="211.9"/>
      <line class="e" x1="479.31" y1="230.08" x2="492.92" y2="224.23"/>
      <line class="e" x1="479.27" y1="241.23" x2="492.89" y2="236.56"/>
      <line class="e" x1="479.23" y1="252.39" x2="492.85" y2="248.89"/>
      <line class="e" x1="479.2" y1="263.55" x2="492.81" y2="261.22"/>
      <line class="e" x1="479.16" y1="274.7" x2="492.78" y2="273.55"/>
      <line class="e" x1="479.12" y1="285.86" x2="492.74" y2="285.88"/>
      <line class="e" x1="479.09" y1="297.02" x2="492.7" y2="298.2"/>
      <line class="e" x1="479.05" y1="308.17" x2="492.66" y2="310.53"/>
      <line class="e" x1="479.01" y1="319.33" x2="492.63" y2="322.86"/>
      <line class="e" x1="478.98" y1="330.49" x2="492.59" y2="335.19"/>
      <line class="e" x1="478.94" y1="341.64" x2="492.55" y2="347.52"/>
      <line class="e" x1="478.9" y1="352.8" x2="492.52" y2="359.85"/>
      <line class="e" x1="478.87" y1="363.96" x2="492.48" y2="372.18"/>
      <line class="e" x1="478.83" y1="375.11" x2="492.44" y2="384.51"/>
      <line class="e" x1="478.8" y1="386.27" x2="492.41" y2="396.84"/>
      <line class="e" x1="478.76" y1="397.43" x2="492.37" y2="409.17"/>
    </g>
    <g>
      <line class="e" x1="494.85" y1="159.69" x2="508.95" y2="147.43"/>
      <line class="e" x1="494.82" y1="171.16" x2="508.92" y2="160.02"/>
      <line class="e" x1="494.79" y1="182.63" x2="508.88" y2="172.61"/>
      <line class="e" x1="494.76" y1="194.1" x2="508.85" y2="185.19"/>
      <line class="e" x1="494.72" y1="205.57" x2="508.82" y2="197.78"/>
      <line class="e" x1="494.69" y1="217.04" x2="508.78" y2="210.36"/>
      <line class="e" x1="494.66" y1="228.51" x2="508.75" y2="222.95"/>
      <line class="e" x1="494.62" y1="239.98" x2="508.72" y2="235.53"/>
      <line class="e" x1="494.59" y1="251.45" x2="508.68" y2="248.12"/>
      <line class="e" x1="494.56" y1="262.92" x2="508.65" y2="260.7"/>
      <line class="e" x1="494.52" y1="274.39" x2="508.62" y2="273.29"/>
      <line class="e" x1="494.49" y1="285.86" x2="508.58" y2="285.88"/>
      <line class="e" x1="494.46" y1="297.33" x2="508.55" y2="298.46"/>
      <line class="e" x1="494.42" y1="308.8" x2="508.51" y2="311.05"/>
      <line class="e" x1="494.39" y1="320.27" x2="508.48" y2="323.63"/>
      <line class="e" x1="494.36" y1="331.74" x2="508.45" y2="336.22"/>
      <line class="e" x1="494.32" y1="343.21" x2="508.41" y2="348.8"/>
      <line class="e" x1="494.29" y1="354.68" x2="508.38" y2="361.39"/>
      <line class="e" x1="494.26" y1="366.15" x2="508.35" y2="373.97"/>
      <line class="e" x1="494.23" y1="377.62" x2="508.31" y2="386.56"/>
      <line class="e" x1="494.19" y1="389.09" x2="508.28" y2="399.14"/>
      <line class="e" x1="494.16" y1="400.56" x2="508.25" y2="411.73"/>
      <line class="e" x1="494.13" y1="412.03" x2="508.21" y2="424.32"/>
    </g>
    <g>
      <line class="e" x1="510.17" y1="145.13" x2="524.79" y2="132.3"/>
      <line class="e" x1="510.14" y1="156.39" x2="524.76" y2="144.59"/>
      <line class="e" x1="510.11" y1="167.64" x2="524.73" y2="156.87"/>
      <line class="e" x1="510.08" y1="178.9" x2="524.71" y2="169.16"/>
      <line class="e" x1="510.06" y1="190.16" x2="524.68" y2="181.44"/>
      <line class="e" x1="510.03" y1="201.42" x2="524.65" y2="193.73"/>
      <line class="e" x1="510" y1="212.68" x2="524.62" y2="206.02"/>
      <line class="e" x1="509.97" y1="223.94" x2="524.59" y2="218.3"/>
      <line class="e" x1="509.94" y1="235.2" x2="524.56" y2="230.59"/>
      <line class="e" x1="509.91" y1="246.46" x2="524.53" y2="242.87"/>
      <line class="e" x1="509.88" y1="257.72" x2="524.5" y2="255.16"/>
      <line class="e" x1="509.85" y1="268.98" x2="524.47" y2="267.45"/>
      <line class="e" x1="509.82" y1="280.24" x2="524.44" y2="279.73"/>
      <line class="e" x1="509.8" y1="291.49" x2="524.41" y2="292.02"/>
      <line class="e" x1="509.77" y1="302.75" x2="524.38" y2="304.3"/>
      <line class="e" x1="509.74" y1="314.01" x2="524.35" y2="316.59"/>
      <line class="e" x1="509.71" y1="325.27" x2="524.32" y2="328.88"/>
      <line class="e" x1="509.68" y1="336.53" x2="524.29" y2="341.16"/>
      <line class="e" x1="509.65" y1="347.79" x2="524.26" y2="353.45"/>
      <line class="e" x1="509.62" y1="359.05" x2="524.23" y2="365.73"/>
      <line class="e" x1="509.59" y1="370.31" x2="524.2" y2="378.02"/>
      <line class="e" x1="509.56" y1="381.57" x2="524.17" y2="390.31"/>
      <line class="e" x1="509.53" y1="392.83" x2="524.14" y2="402.59"/>
      <line class="e" x1="509.51" y1="404.08" x2="524.11" y2="414.88"/>
      <line class="e" x1="509.48" y1="415.34" x2="524.08" y2="427.16"/>
      <line class="e" x1="509.45" y1="426.6" x2="524.05" y2="439.45"/>
    </g>
  </g>
  <g>
    <g>
      <line class="e" x1="680.22" y1="276.7" x2="666.64" y2="270.26"/>
      <line class="e" x1="680.56" y1="285.76" x2="667.01" y2="285.88"/>
      <line class="e" x1="680.9" y1="294.82" x2="667.38" y2="301.49"/>
    </g>
    <g>
      <line class="e" x1="663.53" y1="308.81" x2="650.8" y2="317.01"/>
      <line class="e" x1="663.68" y1="299.65" x2="650.95" y2="304.56"/>
      <line class="e" x1="663.82" y1="290.49" x2="651.09" y2="292.1"/>
      <line class="e" x1="663.97" y1="281.33" x2="651.24" y2="279.65"/>
      <line class="e" x1="664.12" y1="272.17" x2="651.39" y2="267.19"/>
      <line class="e" x1="664.27" y1="263.01" x2="651.54" y2="254.74"/>
    </g>
    <g>
      <line class="e" x1="647.42" y1="323.21" x2="634.96" y2="332.21"/>
      <line class="e" x1="647.53" y1="312.55" x2="635.06" y2="318.97"/>
      <line class="e" x1="647.64" y1="301.89" x2="635.17" y2="305.73"/>
      <line class="e" x1="647.74" y1="291.23" x2="635.27" y2="292.49"/>
      <line class="e" x1="647.85" y1="280.58" x2="635.38" y2="279.26"/>
      <line class="e" x1="647.95" y1="269.92" x2="635.48" y2="266.02"/>
      <line class="e" x1="648.06" y1="259.26" x2="635.59" y2="252.78"/>
      <line class="e" x1="648.17" y1="248.6" x2="635.69" y2="239.54"/>
    </g>
    <g>
      <line class="e" x1="631.57" y1="337.92" x2="619.11" y2="347.51"/>
      <line class="e" x1="631.65" y1="326.36" x2="619.19" y2="333.82"/>
      <line class="e" x1="631.73" y1="314.8" x2="619.28" y2="320.12"/>
      <line class="e" x1="631.81" y1="303.24" x2="619.36" y2="306.42"/>
      <line class="e" x1="631.9" y1="291.68" x2="619.44" y2="292.72"/>
      <line class="e" x1="631.98" y1="280.12" x2="619.52" y2="279.03"/>
      <line class="e" x1="632.06" y1="268.56" x2="619.61" y2="265.33"/>
      <line class="e" x1="632.14" y1="257" x2="619.69" y2="251.63"/>
      <line class="e" x1="632.23" y1="245.44" x2="619.77" y2="237.93"/>
      <line class="e" x1="632.31" y1="233.88" x2="619.85" y2="224.24"/>
    </g>
    <g>
      <line class="e" x1="615.88" y1="352.52" x2="603.27" y2="362.61"/>
      <line class="e" x1="615.94" y1="341.41" x2="603.33" y2="349.82"/>
      <line class="e" x1="616" y1="330.31" x2="603.39" y2="337.03"/>
      <line class="e" x1="616.06" y1="319.21" x2="603.45" y2="324.24"/>
      <line class="e" x1="616.13" y1="308.1" x2="603.52" y2="311.45"/>
      <line class="e" x1="616.19" y1="297" x2="603.58" y2="298.66"/>
      <line class="e" x1="616.25" y1="285.9" x2="603.64" y2="285.88"/>
      <line class="e" x1="616.31" y1="274.8" x2="603.7" y2="273.09"/>
      <line class="e" x1="616.37" y1="263.69" x2="603.76" y2="260.3"/>
      <line class="e" x1="616.43" y1="252.59" x2="603.82" y2="247.51"/>
      <line class="e" x1="616.5" y1="241.49" x2="603.89" y2="234.72"/>
      <line class="e" x1="616.56" y1="230.38" x2="603.95" y2="221.93"/>
      <line class="e" x1="616.62" y1="219.28" x2="604.01" y2="209.14"/>
    </g>
    <g>
      <line class="e" x1="600.29" y1="367.34" x2="587.43" y2="377.95"/>
      <line class="e" x1="600.34" y1="355.71" x2="587.48" y2="364.8"/>
      <line class="e" x1="600.4" y1="344.07" x2="587.53" y2="351.64"/>
      <line class="e" x1="600.45" y1="332.44" x2="587.58" y2="338.49"/>
      <line class="e" x1="600.5" y1="320.8" x2="587.64" y2="325.34"/>
      <line class="e" x1="600.56" y1="309.17" x2="587.69" y2="312.18"/>
      <line class="e" x1="600.61" y1="297.53" x2="587.74" y2="299.03"/>
      <line class="e" x1="600.66" y1="285.9" x2="587.8" y2="285.88"/>
      <line class="e" x1="600.71" y1="274.26" x2="587.85" y2="272.72"/>
      <line class="e" x1="600.77" y1="262.62" x2="587.9" y2="259.57"/>
      <line class="e" x1="600.82" y1="250.99" x2="587.95" y2="246.41"/>
      <line class="e" x1="600.87" y1="239.35" x2="588.01" y2="233.26"/>
      <line class="e" x1="600.92" y1="227.72" x2="588.06" y2="220.11"/>
      <line class="e" x1="600.98" y1="216.08" x2="588.11" y2="206.95"/>
      <line class="e" x1="601.03" y1="204.45" x2="588.17" y2="193.8"/>
    </g>
    <g>
      <line class="e" x1="584.79" y1="382.39" x2="571.58" y2="393.53"/>
      <line class="e" x1="584.83" y1="371.04" x2="571.63" y2="380.87"/>
      <line class="e" x1="584.87" y1="359.68" x2="571.67" y2="368.2"/>
      <line class="e" x1="584.92" y1="348.33" x2="571.71" y2="355.54"/>
      <line class="e" x1="584.96" y1="336.98" x2="571.76" y2="342.87"/>
      <line class="e" x1="585" y1="325.63" x2="571.8" y2="330.21"/>
      <line class="e" x1="585.05" y1="314.27" x2="571.84" y2="317.54"/>
      <line class="e" x1="585.09" y1="302.92" x2="571.89" y2="304.87"/>
      <line class="e" x1="585.13" y1="291.57" x2="571.93" y2="292.21"/>
      <line class="e" x1="585.18" y1="280.22" x2="571.97" y2="279.54"/>
      <line class="e" x1="585.22" y1="268.86" x2="572.02" y2="266.88"/>
      <line class="e" x1="585.26" y1="257.51" x2="572.06" y2="254.21"/>
      <line class="e" x1="585.31" y1="246.16" x2="572.11" y2="241.54"/>
      <line class="e" x1="585.35" y1="234.81" x2="572.15" y2="228.88"/>
      <line class="e" x1="585.39" y1="223.45" x2="572.19" y2="216.21"/>
      <line class="e" x1="585.44" y1="212.1" x2="572.24" y2="203.55"/>
      <line class="e" x1="585.48" y1="200.75" x2="572.28" y2="190.88"/>
      <line class="e" x1="585.52" y1="189.4" x2="572.32" y2="178.22"/>
    </g>
    <g>
      <line class="e" x1="569.36" y1="397.46" x2="555.74" y2="409.17"/>
      <line class="e" x1="569.4" y1="386.3" x2="555.78" y2="396.84"/>
      <line class="e" x1="569.43" y1="375.14" x2="555.81" y2="384.51"/>
      <line class="e" x1="569.47" y1="363.99" x2="555.85" y2="372.18"/>
      <line class="e" x1="569.5" y1="352.83" x2="555.89" y2="359.85"/>
      <line class="e" x1="569.54" y1="341.67" x2="555.93" y2="347.52"/>
      <line class="e" x1="569.58" y1="330.52" x2="555.96" y2="335.19"/>
      <line class="e" x1="569.61" y1="319.36" x2="556" y2="322.86"/>
      <line class="e" x1="569.65" y1="308.2" x2="556.04" y2="310.53"/>
      <line class="e" x1="569.69" y1="297.05" x2="556.07" y2="298.2"/>
      <line class="e" x1="569.72" y1="285.89" x2="556.11" y2="285.88"/>
      <line class="e" x1="569.76" y1="274.73" x2="556.15" y2="273.55"/>
      <line class="e" x1="569.8" y1="263.58" x2="556.18" y2="261.22"/>
      <line class="e" x1="569.83" y1="252.42" x2="556.22" y2="248.89"/>
      <line class="e" x1="569.87" y1="241.26" x2="556.26" y2="236.56"/>
      <line class="e" x1="569.91" y1="230.11" x2="556.3" y2="224.23"/>
      <line class="e" x1="569.94" y1="218.95" x2="556.33" y2="211.9"/>
      <line class="e" x1="569.98" y1="207.79" x2="556.37" y2="199.57"/>
      <line class="e" x1="570.02" y1="196.64" x2="556.41" y2="187.24"/>
      <line class="e" x1="570.05" y1="185.48" x2="556.44" y2="174.91"/>
      <line class="e" x1="570.09" y1="174.32" x2="556.48" y2="162.58"/>
    </g>
    <g>
      <line class="e" x1="553.99" y1="412.06" x2="539.9" y2="424.32"/>
      <line class="e" x1="554.03" y1="400.59" x2="539.93" y2="411.73"/>
      <line class="e" x1="554.06" y1="389.12" x2="539.97" y2="399.14"/>
      <line class="e" x1="554.09" y1="377.65" x2="540" y2="386.56"/>
      <line class="e" x1="554.13" y1="366.18" x2="540.03" y2="373.97"/>
      <line class="e" x1="554.16" y1="354.71" x2="540.07" y2="361.39"/>
      <line class="e" x1="554.19" y1="343.24" x2="540.1" y2="348.8"/>
      <line class="e" x1="554.23" y1="331.77" x2="540.13" y2="336.22"/>
      <line class="e" x1="554.26" y1="320.3" x2="540.17" y2="323.63"/>
      <line class="e" x1="554.29" y1="308.83" x2="540.2" y2="311.05"/>
      <line class="e" x1="554.33" y1="297.36" x2="540.23" y2="298.46"/>
      <line class="e" x1="554.36" y1="285.89" x2="540.27" y2="285.88"/>
      <line class="e" x1="554.39" y1="274.42" x2="540.3" y2="273.29"/>
      <line class="e" x1="554.42" y1="262.95" x2="540.33" y2="260.7"/>
      <line class="e" x1="554.46" y1="251.48" x2="540.37" y2="248.12"/>
      <line class="e" x1="554.49" y1="240.01" x2="540.4" y2="235.53"/>
      <line class="e" x1="554.52" y1="228.54" x2="540.44" y2="222.95"/>
      <line class="e" x1="554.56" y1="217.07" x2="540.47" y2="210.36"/>
      <line class="e" x1="554.59" y1="205.6" x2="540.5" y2="197.78"/>
      <line class="e" x1="554.62" y1="194.13" x2="540.54" y2="185.19"/>
      <line class="e" x1="554.66" y1="182.66" x2="540.57" y2="172.61"/>
      <line class="e" x1="554.69" y1="171.19" x2="540.6" y2="160.02"/>
      <line class="e" x1="554.72" y1="159.72" x2="540.64" y2="147.43"/>
    </g>
    <g>
      <line class="e" x1="538.68" y1="426.62" x2="524.05" y2="439.45"/>
      <line class="e" x1="538.71" y1="415.36" x2="524.08" y2="427.16"/>
      <line class="e" x1="538.74" y1="404.11" x2="524.11" y2="414.88"/>
      <line class="e" x1="538.76" y1="392.85" x2="524.14" y2="402.59"/>
      <line class="e" x1="538.79" y1="381.59" x2="524.17" y2="390.31"/>
      <line class="e" x1="538.82" y1="370.33" x2="524.2" y2="378.02"/>
      <line class="e" x1="538.85" y1="359.07" x2="524.23" y2="365.73"/>
      <line class="e" x1="538.88" y1="347.81" x2="524.26" y2="353.45"/>
      <line class="e" x1="538.91" y1="336.55" x2="524.29" y2="341.16"/>
      <line class="e" x1="538.94" y1="325.29" x2="524.32" y2="328.88"/>
      <line class="e" x1="538.97" y1="314.03" x2="524.35" y2="316.59"/>
      <line class="e" x1="539" y1="302.77" x2="524.38" y2="304.3"/>
      <line class="e" x1="539.02" y1="291.51" x2="524.41" y2="292.02"/>
      <line class="e" x1="539.05" y1="280.26" x2="524.44" y2="279.73"/>
      <line class="e" x1="539.08" y1="269" x2="524.47" y2="267.45"/>
      <line class="e" x1="539.11" y1="257.74" x2="524.5" y2="255.16"/>
      <line class="e" x1="539.14" y1="246.48" x2="524.53" y2="242.87"/>
      <line class="e" x1="539.17" y1="235.22" x2="524.56" y2="230.59"/>
      <line class="e" x1="539.2" y1="223.96" x2="524.59" y2="218.3"/>
      <line class="e" x1="539.23" y1="212.7" x2="524.62" y2="206.02"/>
      <line class="e" x1="539.26" y1="201.44" x2="524.65" y2="193.73"/>
      <line class="e" x1="539.29" y1="190.18" x2="524.68" y2="181.44"/>
      <line class="e" x1="539.31" y1="178.92" x2="524.71" y2="169.16"/>
      <line class="e" x1="539.34" y1="167.67" x2="524.73" y2="156.87"/>
      <line class="e" x1="539.37" y1="156.41" x2="524.76" y2="144.59"/>
      <line class="e" x1="539.4" y1="145.15" x2="524.79" y2="132.3"/>
    </g>
  </g>
  <g>
    <path class="d" d="M374.5,452.12v2.77h-8.74v-2.71c0-2.87,1.49-5,4.34-5C373.17,447.22,374.5,449.15,374.5,452.12Zm-7.7.1v1.44h6.66V452c0-2.21-1.07-3.52-3.22-3.52C367.91,448.46,366.8,449.93,366.8,452.22Z"/>
    <path class="d" d="M374.61,440.25a4.14,4.14,0,0,1-4.5,4.39,4.27,4.27,0,0,1-4.48-4.61c0-2.9,2-4.37,4.5-4.37A4.22,4.22,0,0,1,374.61,440.25Zm-7.92-.11a3.09,3.09,0,0,0,3.41,3.25c1.9,0,3.47-1.06,3.47-3.17s-1.47-3.3-3.44-3.3A3.12,3.12,0,0,0,366.69,440.14Z"/>
    <path class="d" d="M365.76,428v-3.28a2.76,2.76,0,0,1,2.95-3c1.66,0,3.06,1.15,3.06,3.6v.35h-1.06v-.43c0-1.31-.69-2.21-2-2.21a1.72,1.72,0,0,0-2,1.92v1.78h7.7V428Z"/>
    <path class="d" d="M373.25,413.93s-1.84,1.63-1.94,1.73,0,.37,0,.53v1.33h3.17v1.25h-8.74v-3.22c0-1.78.93-2.95,2.74-2.95a2.59,2.59,0,0,1,2.53,1.76l1.26-1.17a4.42,4.42,0,0,0,1.33-2l1,.24A3.5,3.5,0,0,1,373.25,413.93Zm-2.95,2.19c0-1.31-.46-2.21-1.74-2.21s-1.76.61-1.76,1.9v1.7h3.51Z"/>
    <path class="d" d="M374.61,405a4.14,4.14,0,0,1-4.5,4.39,4.27,4.27,0,0,1-4.48-4.61c0-2.9,2-4.37,4.5-4.37A4.22,4.22,0,0,1,374.61,405Zm-7.92-.11a3.09,3.09,0,0,0,3.41,3.25c1.9,0,3.47-1.06,3.47-3.17s-1.47-3.3-3.44-3.3A3.12,3.12,0,0,0,366.69,404.92Z"/>
    <path class="d" d="M374.5,393.35V397h-8.74v-3.23c0-2,.9-3.06,2.23-3.06a2,2,0,0,1,1.84,1.15,2.24,2.24,0,0,1,2.13-1.76C373.45,390.06,374.5,391.08,374.5,393.35Zm-7.75.64v1.71h2.82v-2c0-1.31-.5-1.73-1.41-1.73S366.76,392.7,366.76,394Zm3.76-.19v1.91h3v-2.18c0-1.17-.29-2.21-1.49-2.21S370.52,392.19,370.52,393.8Z"/>
    <path class="d" d="M374.5,386.43h-8.74v-1.25h7.67v-4.83h1.07Z"/>
    <path class="d" d="M374.5,377.48h-8.74v-5.86h1v4.61h2.8V371.9h1v4.34h2.83v-4.9h1Z"/>
    <path class="d" d="M374.5,358.51h-6.07l-1.14-.06,7.2,3.35v1.62l-7.09,3.06,1.06-.08h6v1.2h-8.74V365.9l7.76-3.33-7.76-3.63V357.3h8.74Z"/>
    <path class="d" d="M365.76,351.1v-1.87l8.74-3v1.38l-2.91,1v3.63l2.91,1.15v1.31Zm4.8-2.22-4.07,1.34,4.07,1.57Z"/>
  </g>
  <ellipse class="f" cx="351.22" cy="287" rx="17.41" ry="16.88"/>
  <text class="g" transform="translate(569.42 72.39)">solues que <tspan class="h" x="6.16" y="24">f</tspan><tspan x="11.25" y="24">uncionam</tspan></text>
  <text class="g" transform="translate(407.74 72.39)">poss<tspan class="i" x="32.11" y="0">v</tspan><tspan x="39.14" y="0">eis </tspan><tspan x="2.46" y="24">soluces</tspan></text>
  <text class="g" transform="translate(229.64 72.39)">p<tspan class="j" x="7.97" y="0">r</tspan><tspan x="13.18" y="0">oblemas</tspan><tspan x="0.91" y="24">pa</tspan><tspan class="j" x="17.33" y="24">r</tspan><tspan x="22.54" y="24">a </tspan><tspan class="i" x="33.87" y="24">f</tspan><tspan x="38.8" y="24">ocar</tspan></text>
  <text class="g" transform="translate(60.27 72.39)">poss<tspan class="i" x="32.11" y="0">v</tspan><tspan x="39.14" y="0">eis </tspan><tspan x="-4.36" y="24">p</tspan><tspan class="j" x="3.61" y="24">r</tspan><tspan x="8.82" y="24">oblemas</tspan></text>
</svg>
