<svg xmlns="http://www.w3.org/2000/svg" width="1346" height="601.21" viewBox="0 0 1346 601.21">
  <defs>
    <style>
      .a {
        fill: blue;
      }

      .b, .c {
        fill: none;
        stroke: blue;
        stroke-miterlimit: 10;
      }

      .b {
        stroke-width: 1px;
      }

      .c {
        stroke-dasharray: 1 2;
      }
    </style>
  </defs>
  <title>lean-canvas</title>
  <g>
    <path class="a" d="M3.38,17.34V4.24H4.77V16.07h7.66v1.27Z"/>
    <path class="a" d="M16.51,17.34V4.24H25V5.41H17.9v4.73h6.7v1.22H17.9v4.78h7.54v1.2Z"/>
    <path class="a" d="M33.72,4.24h2.23l4.61,13.11H39l-1.63-4.8H31.75l-1.92,4.8H28.36ZM37,11.32,34.77,4.93l-2.54,6.38Z"/>
    <path class="a" d="M53.42,17.34,45.52,5.48l.07.67V17.34H44.2V4.24h2l8.09,12-.07-1.15V4.24h1.42V17.34Z"/>
    <path class="a" d="M76.89,17A9.31,9.31,0,0,1,73,17.6a6.39,6.39,0,0,1-6.79-6.72c0-4,2.5-6.89,6.72-6.89a10,10,0,0,1,3.89.72l-.41,1.2A10.46,10.46,0,0,0,73,5.27c-2.78,0-5.33,1.51-5.33,5.42s2.62,5.69,5.69,5.69a10,10,0,0,0,3.17-.58Z"/>
    <path class="a" d="M84.45,4.24h2.23l4.61,13.11H89.76l-1.63-4.8H82.48l-1.92,4.8H79.1Zm3.24,7.08L85.51,4.93,83,11.32Z"/>
    <path class="a" d="M104.16,17.34,96.26,5.48l.07.67V17.34H94.94V4.24h2l8.09,12L105,15.13V4.24h1.42V17.34Z"/>
    <path class="a" d="M110.32,4.24h1.54l4.25,12.41,4.94-12.41h1.46l-5.35,13.11h-2.23Z"/>
    <path class="a" d="M128.68,4.24h2.23l4.61,13.11H134l-1.63-4.8h-5.64l-1.92,4.8h-1.46Zm3.24,7.08-2.18-6.38-2.54,6.38Z"/>
    <path class="a" d="M137.87,16.5l.5-1.2a10.53,10.53,0,0,0,4,.89c1.66,0,3.5-.34,3.5-2.33,0-1.25-1.46-1.9-2.45-2.28-2-.84-4.92-1.66-4.92-4.32,0-2.16,1.9-3.14,4.44-3.14a8.93,8.93,0,0,1,3.84.7l-.43,1.1a10.52,10.52,0,0,0-3.36-.6c-1.66,0-3.12.38-3.12,1.92,0,1.3,1.42,2,2.45,2.42,1.82.82,4.92,1.68,4.92,4.08,0,2.86-2.33,3.7-4.87,3.7A10.22,10.22,0,0,1,137.87,16.5Z"/>
  </g>
  <rect class="b" x="0.5" y="42.21" width="1345" height="558"/>
  <line class="c" x1="1" y1="503.21" x2="1345" y2="503.21"/>
  <line class="c" x1="1076.5" y1="43.21" x2="1076.5" y2="504.21"/>
  <line class="c" x1="807.5" y1="43.21" x2="807.5" y2="504.21"/>
  <line class="c" x1="538.5" y1="43.21" x2="538.5" y2="504.21"/>
  <line class="c" x1="269.5" y1="43.21" x2="269.5" y2="504.21"/>
  <line class="c" x1="673.5" y1="504.21" x2="673.5" y2="601.21"/>
  <line class="c" x1="270" y1="273.71" x2="539" y2="273.71"/>
  <line class="c" x1="808" y1="273.71" x2="1077" y2="273.71"/>
  <g>
    <path class="a" d="M14.61,57.13h3.91a3.36,3.36,0,0,1,3.6,3.33c0,2.11-1.57,3.44-4.24,3.44h-.77v2h-2.5ZM17.11,62h.83a1.45,1.45,0,0,0,1.63-1.47,1.23,1.23,0,0,0-1.33-1.41H17.11Z"/>
    <path class="a" d="M29,64.5l-1.3-1.44h-.83v2.8h-2.5V57.13h3.58c2,0,3.55.93,3.55,2.95a2.75,2.75,0,0,1-1.3,2.37l.75.7a3.56,3.56,0,0,0,1.94,1L32.42,66A4.47,4.47,0,0,1,29,64.5Zm-1.62-3.22c1.18,0,1.58-.4,1.58-1.1s-.38-1.07-1.28-1.07h-.82v2.18Z"/>
    <path class="a" d="M39.35,66c-3.17,0-4.75-1.74-4.75-4.51,0-2.95,1.92-4.48,5-4.48,3.28,0,4.72,1.79,4.72,4.5C44.31,64.41,42.55,66,39.35,66Zm.13-7a2.2,2.2,0,0,0-2.39,2.51c0,1.47.67,2.58,2.29,2.58,1.78,0,2.42-1.06,2.42-2.56S41.09,59,39.48,59Z"/>
    <path class="a" d="M51.29,65.87H47V57.13h3.89c2.18,0,3.43.78,3.43,2.51a1.82,1.82,0,0,1-.85,1.52,2.1,2.1,0,0,1,1.44,2C54.94,64.76,53.93,65.87,51.29,65.87ZM50.61,59h-1.1v1.78h1.22c.83,0,1.1-.4,1.1-.93S51.54,59,50.61,59Zm.5,3.23h-1.6V64h1.74c.88,0,1.17-.38,1.17-.9S52.12,62.25,51.11,62.25Z"/>
    <path class="a" d="M57.7,65.87V57.13h2.48v6.79H64v2Z"/>
    <path class="a" d="M66.2,65.87V57.13h6.58v1.94h-4.1v1.5H72.5v1.84H68.68v1.52h4.39v1.94Z"/>
    <path class="a" d="M84.92,65.87V62.09L85,60.74l-2.26,5.12H80.25l-2.16-5.12.18,1.34v3.78H75.94V57.13h2.88l2.74,6.4,2.93-6.4h2.75v8.74Z"/>
    <path class="a" d="M92.48,57.13h3.3l2.91,8.74H96L95.51,64H92.34l-.61,1.86H89.16ZM95,62.2,94,58.92,92.95,62.2Z"/>
  </g>
  <g>
    <path class="a" d="M14.61,526.87v-8.74h6.58v1.94h-4.1v1.5h3.83v1.84H17.09v1.52h4.39v1.94Z"/>
    <path class="a" d="M23.7,526.45l.69-1.89a8.1,8.1,0,0,0,2.72.42c1.18,0,1.52-.3,1.52-.62,0-.54-1.09-.72-2.21-1.12s-2.48-1.09-2.48-2.72,2-2.43,3.76-2.43a7.22,7.22,0,0,1,3.17.51l-.56,1.81a9.65,9.65,0,0,0-2.54-.34c-1,0-1.07.26-1.07.45,0,.46.9.72,1.91,1.09,1.33.48,2.86,1.12,2.86,2.67,0,2-2.26,2.72-4.32,2.72A7.51,7.51,0,0,1,23.7,526.45Z"/>
    <path class="a" d="M38.12,520.06v6.8H35.64v-6.8H32.9v-1.94h8v1.94Z"/>
    <path class="a" d="M47.72,525.5l-1.3-1.44h-.83v2.8h-2.5v-8.74h3.59c2,0,3.55.93,3.55,2.95a2.76,2.76,0,0,1-1.3,2.37l.75.7a3.56,3.56,0,0,0,1.94,1L51.16,527A4.47,4.47,0,0,1,47.72,525.5Zm-1.62-3.22c1.18,0,1.58-.4,1.58-1.1s-.38-1.07-1.28-1.07h-.82v2.18Z"/>
    <path class="a" d="M57.57,527c-2,0-4.24-.64-4.24-3.51v-5.39h2.5v5.33c0,.85.5,1.52,1.75,1.52a1.55,1.55,0,0,0,1.74-1.78v-5.07h2.45v5.11C61.77,526.31,59.57,527,57.57,527Z"/>
    <path class="a" d="M69.38,520.06v6.8H66.9v-6.8H64.16v-1.94h8v1.94Z"/>
    <path class="a" d="M78.76,527c-2,0-4.24-.64-4.24-3.51v-5.39H77v5.33c0,.85.5,1.52,1.75,1.52a1.55,1.55,0,0,0,1.74-1.78v-5.07H83v5.11C83,526.31,80.76,527,78.76,527Z"/>
    <path class="a" d="M90.77,525.5l-1.3-1.44h-.83v2.8h-2.5v-8.74h3.58c2,0,3.55.93,3.55,2.95a2.75,2.75,0,0,1-1.3,2.37l.75.7a3.56,3.56,0,0,0,1.94,1L94.21,527A4.47,4.47,0,0,1,90.77,525.5Zm-1.62-3.22c1.18,0,1.58-.4,1.58-1.1s-.38-1.07-1.28-1.07h-.82v2.18Z"/>
    <path class="a" d="M98.92,518.13h3.3l2.91,8.74h-2.66l-.53-1.86H98.77l-.61,1.86H95.59Zm2.48,5.07-.93-3.28-1.09,3.28Z"/>
    <path class="a" d="M115.22,526.87h-3.38v-8.74h3.31c3.07,0,5.28,1.31,5.28,4.35S118.44,526.87,115.22,526.87Zm-.1-6.8h-.82v4.87h1.06c1.91,0,2.59-.8,2.59-2.34S117.11,520.06,115.12,520.06Z"/>
    <path class="a" d="M123.16,526.87v-8.74h6.58v1.94h-4.1v1.5h3.83v1.84h-3.83v1.52H130v1.94Z"/>
    <path class="a" d="M144,526.8a8.17,8.17,0,0,1-2,.19c-3.28,0-5-1.57-5-4.43,0-3,1.71-4.51,5-4.51a6.64,6.64,0,0,1,2.95.58l-.67,1.78a7.48,7.48,0,0,0-2.26-.32,2.19,2.19,0,0,0-2.48,2.37c0,1.63,1.06,2.5,2.74,2.5a7.59,7.59,0,0,0,2.15-.27c.18.61.37,1.23.54,1.84A6.44,6.44,0,0,1,144,526.8Z"/>
    <path class="a" d="M151.32,527c-2,0-4.24-.64-4.24-3.51v-5.39h2.5v5.33c0,.85.5,1.52,1.74,1.52a1.55,1.55,0,0,0,1.75-1.78v-5.07h2.45v5.11C155.51,526.31,153.32,527,151.32,527Z"/>
    <path class="a" d="M158,526.45l.69-1.89a8.11,8.11,0,0,0,2.72.42c1.18,0,1.52-.3,1.52-.62,0-.54-1.09-.72-2.21-1.12s-2.48-1.09-2.48-2.72,2-2.43,3.76-2.43a7.22,7.22,0,0,1,3.17.51l-.56,1.81a9.66,9.66,0,0,0-2.54-.34c-1,0-1.07.26-1.07.45,0,.46.9.72,1.9,1.09,1.33.48,2.87,1.12,2.87,2.67,0,2-2.26,2.72-4.32,2.72A7.51,7.51,0,0,1,158,526.45Z"/>
    <path class="a" d="M172.47,520.06v6.8H170v-6.8h-2.74v-1.94h8v1.94Z"/>
    <path class="a" d="M181.56,527c-3.17,0-4.75-1.74-4.75-4.51,0-2.95,1.92-4.48,5-4.48,3.28,0,4.72,1.79,4.72,4.5C186.52,525.41,184.76,527,181.56,527Zm.13-7a2.2,2.2,0,0,0-2.39,2.51c0,1.47.67,2.58,2.29,2.58,1.78,0,2.42-1.06,2.42-2.56S183.3,520,181.68,520Z"/>
    <path class="a" d="M188.58,526.45l.69-1.89A8.1,8.1,0,0,0,192,525c1.18,0,1.52-.3,1.52-.62,0-.54-1.09-.72-2.21-1.12s-2.48-1.09-2.48-2.72,2-2.43,3.76-2.43a7.22,7.22,0,0,1,3.17.51l-.56,1.81a9.65,9.65,0,0,0-2.54-.34c-1,0-1.07.26-1.07.45,0,.46.9.72,1.91,1.09,1.33.48,2.86,1.12,2.86,2.67,0,2-2.26,2.72-4.32,2.72A7.51,7.51,0,0,1,188.58,526.45Z"/>
  </g>
  <g>
    <path class="a" d="M695.59,526.87v-3.78l.11-1.34-2.26,5.12h-2.53l-2.16-5.12.18,1.34v3.78h-2.32v-8.74h2.88l2.74,6.4,2.93-6.4h2.75v8.74Z"/>
    <path class="a" d="M701.27,526.87v-8.74h6.58v1.94h-4.1v1.5h3.83v1.84h-3.83v1.52h4.39v1.94Z"/>
    <path class="a" d="M711,526.87v-8.74h2.48v8.74Z"/>
    <path class="a" d="M721,527c-3.17,0-4.75-1.74-4.75-4.51,0-2.95,1.92-4.48,5-4.48,3.28,0,4.72,1.79,4.72,4.5C725.93,525.41,724.17,527,721,527Zm.13-7a2.2,2.2,0,0,0-2.39,2.51c0,1.47.67,2.58,2.29,2.58,1.78,0,2.42-1.06,2.42-2.56S722.71,520,721.09,520Z"/>
    <path class="a" d="M728,526.45l.69-1.89a8.1,8.1,0,0,0,2.72.42c1.18,0,1.52-.3,1.52-.62,0-.54-1.09-.72-2.21-1.12s-2.48-1.09-2.48-2.72,2-2.43,3.76-2.43a7.22,7.22,0,0,1,3.17.51l-.56,1.81a9.65,9.65,0,0,0-2.54-.34c-1,0-1.07.26-1.07.45,0,.46.9.72,1.91,1.09,1.33.48,2.86,1.12,2.86,2.67,0,2-2.26,2.72-4.32,2.72A7.51,7.51,0,0,1,728,526.45Z"/>
    <path class="a" d="M746.49,526.87h-3.38v-8.74h3.31c3.07,0,5.28,1.31,5.28,4.35S749.7,526.87,746.49,526.87Zm-.1-6.8h-.82v4.87h1.06c1.91,0,2.59-.8,2.59-2.34S748.37,520.06,746.39,520.06Z"/>
    <path class="a" d="M754.42,526.87v-8.74H761v1.94h-4.1v1.5h3.83v1.84H756.9v1.52h4.39v1.94Z"/>
    <path class="a" d="M773.59,525.5l-1.3-1.44h-.83v2.8H769v-8.74h3.58c2,0,3.55.93,3.55,2.95a2.75,2.75,0,0,1-1.3,2.37l.75.7a3.56,3.56,0,0,0,1.94,1L777,527A4.47,4.47,0,0,1,773.59,525.5ZM772,522.29c1.18,0,1.58-.4,1.58-1.1s-.38-1.07-1.28-1.07h-.82v2.18Z"/>
    <path class="a" d="M779.84,526.87v-8.74h6.58v1.94h-4.1v1.5h3.83v1.84h-3.83v1.52h4.39v1.94Z"/>
    <path class="a" d="M795.54,526.87l-3.6-5.22.13,1.09v4.13h-2.48v-8.74h2.74l3.6,5.36-.06-.93v-4.43h2.48v8.74Z"/>
    <path class="a" d="M805.08,526.87H801.7v-8.74H805c3.07,0,5.28,1.31,5.28,4.35S808.29,526.87,805.08,526.87Zm-.1-6.8h-.82v4.87h1.06c1.9,0,2.59-.8,2.59-2.34S807,520.06,805,520.06Z"/>
    <path class="a" d="M813,526.87v-8.74h2.48v8.74Z"/>
    <path class="a" d="M827.83,526.87v-3.78l.11-1.34-2.26,5.12h-2.53L821,521.74l.18,1.34v3.78h-2.32v-8.74h2.88l2.74,6.4,2.93-6.4h2.75v8.74Z"/>
    <path class="a" d="M833.51,526.87v-8.74h6.58v1.94H836v1.5h3.83v1.84H836v1.52h4.39v1.94Z"/>
    <path class="a" d="M849.21,526.87l-3.6-5.22.13,1.09v4.13h-2.48v-8.74H846l3.6,5.36-.06-.93v-4.43H852v8.74Z"/>
    <path class="a" d="M859.46,520.06v6.8H857v-6.8h-2.74v-1.94h8v1.94Z"/>
    <path class="a" d="M868.55,527c-3.17,0-4.75-1.74-4.75-4.51,0-2.95,1.92-4.48,5-4.48,3.28,0,4.72,1.79,4.72,4.5C873.51,525.41,871.75,527,868.55,527Zm.13-7a2.2,2.2,0,0,0-2.39,2.51c0,1.47.67,2.58,2.29,2.58,1.78,0,2.42-1.06,2.42-2.56S870.29,520,868.68,520Z"/>
  </g>
  <g>
    <path class="a" d="M282,65.45l.69-1.89a8.11,8.11,0,0,0,2.72.42c1.18,0,1.52-.3,1.52-.62,0-.54-1.09-.72-2.21-1.12s-2.48-1.09-2.48-2.72,2-2.43,3.76-2.43a7.22,7.22,0,0,1,3.17.51l-.56,1.81a9.66,9.66,0,0,0-2.54-.34c-1,0-1.07.26-1.07.45,0,.46.9.72,1.9,1.09,1.33.48,2.87,1.12,2.87,2.67,0,2-2.26,2.72-4.32,2.72A7.51,7.51,0,0,1,282,65.45Z"/>
    <path class="a" d="M296.39,66c-3.17,0-4.75-1.74-4.75-4.51,0-2.95,1.92-4.48,5-4.48,3.28,0,4.72,1.79,4.72,4.5C301.35,64.41,299.59,66,296.39,66Zm.13-7a2.2,2.2,0,0,0-2.39,2.51c0,1.47.67,2.58,2.29,2.58,1.78,0,2.42-1.06,2.42-2.56S298.13,59,296.52,59Z"/>
    <path class="a" d="M304.07,65.87V57.13h2.48v6.79h3.78v2Z"/>
    <path class="a" d="M316.33,66c-2,0-4.24-.64-4.24-3.51V57.13h2.5v5.33c0,.85.5,1.52,1.74,1.52a1.55,1.55,0,0,0,1.75-1.78V57.13h2.45v5.11C320.52,65.31,318.33,66,316.33,66Z"/>
    <path class="a" d="M330.05,65.8a8.16,8.16,0,0,1-2,.19c-3.28,0-5-1.57-5-4.43,0-3,1.71-4.51,5-4.51a6.64,6.64,0,0,1,2.95.58l-.67,1.78a7.48,7.48,0,0,0-2.26-.32,2.19,2.19,0,0,0-2.48,2.37c0,1.63,1.06,2.5,2.74,2.5a7.59,7.59,0,0,0,2.14-.27c.18.61.37,1.23.54,1.84A6.45,6.45,0,0,1,330.05,65.8Zm-4.29,3c.4-.24,1.22-.56,1.22-1.12a4.35,4.35,0,0,0-.19-1h2.07a3.33,3.33,0,0,1,.35,1.3c0,1.3-1.52,2-2.53,2.42Z"/>
    <path class="a" d="M335.14,57.13h3.3l2.91,8.74h-2.66L338.17,64H335l-.61,1.86h-2.58Zm.26-2a1.52,1.52,0,0,0-1.12.45l-1-1.18a3.26,3.26,0,0,1,2.3-1.31c1,0,1.42.61,2,.61a2.61,2.61,0,0,0,1.39-.42l.88,1.18a3.31,3.31,0,0,1-2.37,1.28C336.63,55.72,336,55.11,335.4,55.11Zm2.22,7.09-.93-3.28-1.09,3.28Z"/>
    <path class="a" d="M347.06,66c-3.17,0-4.75-1.74-4.75-4.51,0-2.95,1.92-4.48,5-4.48,3.28,0,4.72,1.79,4.72,4.5C352,64.41,350.26,66,347.06,66Zm.13-7a2.2,2.2,0,0,0-2.39,2.51c0,1.47.67,2.58,2.29,2.58,1.78,0,2.42-1.06,2.42-2.56S348.81,59,347.19,59Z"/>
  </g>
  <g>
    <path class="a" d="M291.59,297.87v-3.78l.11-1.34-2.26,5.12h-2.53l-2.16-5.12.18,1.34v3.78h-2.32v-8.74h2.88l2.74,6.4,2.93-6.4h2.75v8.74Z"/>
    <path class="a" d="M297.27,297.87v-8.74h6.58v1.94h-4.1v1.5h3.83v1.84h-3.83v1.52h4.39v1.94Zm1.52-11.24,3.81-1.94.86,1.87-3.92,1.67Z"/>
    <path class="a" d="M311.11,291.06v6.8h-2.48v-6.8h-2.74v-1.94h8v1.94Z"/>
    <path class="a" d="M320.71,296.5l-1.3-1.44h-.83v2.8h-2.5v-8.74h3.59c2,0,3.55.93,3.55,2.95a2.76,2.76,0,0,1-1.3,2.37l.75.7a3.56,3.56,0,0,0,1.94,1l-.46,1.87A4.47,4.47,0,0,1,320.71,296.5Zm-1.62-3.22c1.18,0,1.58-.4,1.58-1.1s-.38-1.07-1.28-1.07h-.82v2.18Z"/>
    <path class="a" d="M327,297.87v-8.74h2.48v8.74Z"/>
    <path class="a" d="M339.14,297.8a8.16,8.16,0,0,1-2,.19c-3.28,0-5-1.57-5-4.43,0-3,1.71-4.51,5-4.51a6.64,6.64,0,0,1,2.95.58l-.67,1.78a7.48,7.48,0,0,0-2.26-.32,2.19,2.19,0,0,0-2.48,2.37c0,1.63,1.06,2.5,2.74,2.5a7.59,7.59,0,0,0,2.14-.27c.18.61.37,1.23.54,1.84A6.45,6.45,0,0,1,339.14,297.8Z"/>
    <path class="a" d="M344.23,289.13h3.3l2.91,8.74h-2.66l-.53-1.86h-3.17l-.61,1.86H340.9Zm2.48,5.07-.93-3.28-1.09,3.28Z"/>
    <path class="a" d="M351.7,297.45l.69-1.89a8.11,8.11,0,0,0,2.72.42c1.18,0,1.52-.3,1.52-.62,0-.54-1.09-.72-2.21-1.12s-2.48-1.09-2.48-2.72,2-2.43,3.76-2.43a7.22,7.22,0,0,1,3.17.51l-.56,1.81a9.66,9.66,0,0,0-2.54-.34c-1,0-1.07.26-1.07.45,0,.46.9.72,1.9,1.09,1.33.48,2.87,1.12,2.87,2.67,0,2-2.26,2.72-4.32,2.72A7.51,7.51,0,0,1,351.7,297.45Z"/>
    <path class="a" d="M361.33,292.21h4.77v2.13h-4.77Z"/>
    <path class="a" d="M375.14,297.8a8.17,8.17,0,0,1-2,.19c-3.28,0-5-1.57-5-4.43,0-3,1.71-4.51,5-4.51a6.64,6.64,0,0,1,2.95.58l-.67,1.78a7.48,7.48,0,0,0-2.26-.32,2.19,2.19,0,0,0-2.48,2.37c0,1.63,1.06,2.5,2.74,2.5a7.59,7.59,0,0,0,2.15-.27c.18.61.37,1.23.54,1.84A6.44,6.44,0,0,1,375.14,297.8Z"/>
    <path class="a" d="M384.13,297.87v-3.44h-3.31v3.44h-2.48v-8.74h2.48v3.41h3.31v-3.41h2.48v8.74Z"/>
    <path class="a" d="M391.86,289.13h3.3l2.91,8.74h-2.66l-.53-1.86h-3.17l-.61,1.86h-2.58Zm2.48,5.07-.93-3.28-1.09,3.28Z"/>
    <path class="a" d="M398.55,289.13h2.61l2,6.9,2.42-6.9h2.54l-3.38,8.74H401.4Z"/>
    <path class="a" d="M410,297.87v-8.74h6.58v1.94h-4.1v1.5h3.83v1.84h-3.83v1.52h4.39v1.94Z"/>
  </g>
  <g>
    <path class="a" d="M551.61,58.13h3.91a3.36,3.36,0,0,1,3.6,3.33c0,2.11-1.57,3.44-4.24,3.44h-.77v2h-2.5Zm2.5,4.85h.83a1.45,1.45,0,0,0,1.63-1.47,1.23,1.23,0,0,0-1.33-1.41h-1.14Z"/>
    <path class="a" d="M566,65.5l-1.3-1.44h-.83v2.8h-2.5V58.13h3.58c2,0,3.55.93,3.55,2.95a2.75,2.75,0,0,1-1.3,2.37l.75.7a3.56,3.56,0,0,0,1.94,1L569.42,67A4.47,4.47,0,0,1,566,65.5Zm-1.62-3.22c1.18,0,1.58-.4,1.58-1.1s-.38-1.07-1.28-1.07h-.82v2.18Z"/>
    <path class="a" d="M576.35,67c-3.17,0-4.75-1.74-4.75-4.51,0-2.95,1.92-4.48,5-4.48,3.28,0,4.72,1.79,4.72,4.5C581.31,65.41,579.55,67,576.35,67Zm.13-7a2.2,2.2,0,0,0-2.39,2.51c0,1.47.67,2.58,2.29,2.58,1.78,0,2.42-1.06,2.42-2.56S578.09,60,576.48,60Z"/>
    <path class="a" d="M584,58.13h3.91a3.36,3.36,0,0,1,3.6,3.33c0,2.11-1.57,3.44-4.24,3.44h-.77v2H584Zm2.5,4.85h.83A1.45,1.45,0,0,0,589,61.5a1.23,1.23,0,0,0-1.33-1.41h-1.14Z"/>
    <path class="a" d="M597.89,67c-3.17,0-4.75-1.74-4.75-4.51,0-2.95,1.92-4.48,5-4.48,3.28,0,4.72,1.79,4.72,4.5C602.85,65.41,601.09,67,597.89,67Zm.13-7a2.2,2.2,0,0,0-2.39,2.51c0,1.47.67,2.58,2.29,2.58,1.78,0,2.42-1.06,2.42-2.56S599.63,60,598,60Z"/>
    <path class="a" d="M604.91,66.45l.69-1.89a8.11,8.11,0,0,0,2.72.42c1.18,0,1.52-.3,1.52-.62,0-.54-1.09-.72-2.21-1.12s-2.48-1.09-2.48-2.72,2-2.43,3.76-2.43a7.22,7.22,0,0,1,3.17.51l-.56,1.81a9.66,9.66,0,0,0-2.54-.34c-1,0-1.07.26-1.07.45,0,.46.9.72,1.9,1.09,1.33.48,2.87,1.12,2.87,2.67,0,2-2.26,2.72-4.32,2.72A7.51,7.51,0,0,1,604.91,66.45Z"/>
    <path class="a" d="M615.23,66.87V58.13h2.48v8.74Z"/>
    <path class="a" d="M627.41,66.8a8.16,8.16,0,0,1-2,.19c-3.28,0-5-1.57-5-4.43,0-3,1.71-4.51,5-4.51a6.64,6.64,0,0,1,2.95.58l-.67,1.78a7.48,7.48,0,0,0-2.26-.32,2.19,2.19,0,0,0-2.48,2.37c0,1.63,1.06,2.5,2.74,2.5a7.59,7.59,0,0,0,2.14-.27c.18.61.37,1.23.54,1.84A6.45,6.45,0,0,1,627.41,66.8Zm-4.29,3c.4-.24,1.22-.56,1.22-1.12a4.35,4.35,0,0,0-.19-1h2.07a3.33,3.33,0,0,1,.35,1.3c0,1.3-1.52,2-2.53,2.42Z"/>
    <path class="a" d="M632.49,58.13h3.3l2.91,8.74H636L635.52,65h-3.17l-.61,1.86h-2.58Zm.26-2a1.52,1.52,0,0,0-1.12.45l-1-1.18a3.26,3.26,0,0,1,2.31-1.31c1,0,1.42.61,2,.61a2.62,2.62,0,0,0,1.39-.42l.88,1.18a3.3,3.3,0,0,1-2.37,1.28C634,56.72,633.37,56.11,632.75,56.11ZM635,63.2,634,59.92,633,63.2Z"/>
    <path class="a" d="M644.41,67c-3.17,0-4.75-1.74-4.75-4.51,0-2.95,1.92-4.48,5-4.48,3.28,0,4.72,1.79,4.72,4.5C649.37,65.41,647.62,67,644.41,67Zm.13-7a2.2,2.2,0,0,0-2.39,2.51c0,1.47.67,2.58,2.29,2.58,1.78,0,2.42-1.06,2.42-2.56S646.16,60,644.54,60Z"/>
    <path class="a" d="M661,67c-2,0-4.24-.64-4.24-3.51V58.13h2.5v5.33c0,.85.5,1.52,1.75,1.52a1.55,1.55,0,0,0,1.74-1.78V58.13h2.45v5.11C665.17,66.31,663,67,661,67Zm-1.73-11.4,3.81-1.94.86,1.87L660,57.23Z"/>
    <path class="a" d="M674.32,66.87l-3.6-5.22.13,1.09v4.13h-2.48V58.13h2.74l3.6,5.36-.06-.93V58.13h2.48v8.74Z"/>
    <path class="a" d="M680.47,66.87V58.13H683v8.74Z"/>
    <path class="a" d="M692.65,66.8a8.16,8.16,0,0,1-2,.19c-3.28,0-5-1.57-5-4.43,0-3,1.71-4.51,5-4.51a6.64,6.64,0,0,1,2.95.58l-.67,1.78a7.48,7.48,0,0,0-2.26-.32,2.19,2.19,0,0,0-2.48,2.37c0,1.63,1.06,2.5,2.74,2.5a7.59,7.59,0,0,0,2.14-.27c.18.61.37,1.23.54,1.84A6.45,6.45,0,0,1,692.65,66.8Z"/>
    <path class="a" d="M697.74,58.13H701L704,66.87h-2.66L700.76,65H697.6L697,66.87h-2.58Zm2.48,5.07-.93-3.28L698.2,63.2Z"/>
    <path class="a" d="M714,66.87h-3.38V58.13H714c3.07,0,5.28,1.31,5.28,4.35S717.26,66.87,714,66.87Zm-.1-6.8h-.82v4.87h1.06c1.91,0,2.59-.8,2.59-2.34S715.93,60.06,713.95,60.06Z"/>
    <path class="a" d="M722,66.87V58.13h6.58v1.94h-4.1v1.5h3.83v1.84h-3.83v1.52h4.39v1.94Z"/>
    <path class="a" d="M735.24,58.13h2.61l2,6.9,2.42-6.9h2.54l-3.38,8.74h-3.38Z"/>
    <path class="a" d="M748.49,58.13h3.3l2.91,8.74H752L751.52,65h-3.17l-.61,1.86h-2.58ZM751,63.2,750,59.92,749,63.2Z"/>
    <path class="a" d="M756.62,66.87V58.13h2.48v6.79h3.78v2Z"/>
    <path class="a" d="M769.23,67c-3.17,0-4.75-1.74-4.75-4.51,0-2.95,1.92-4.48,5-4.48,3.28,0,4.72,1.79,4.72,4.5C774.19,65.41,772.43,67,769.23,67Zm.13-7A2.2,2.2,0,0,0,767,62.48c0,1.47.67,2.58,2.29,2.58,1.78,0,2.42-1.06,2.42-2.56S771,60,769.36,60Z"/>
    <path class="a" d="M781.53,65.5l-1.3-1.44h-.83v2.8h-2.5V58.13h3.58c2,0,3.55.93,3.55,2.95a2.75,2.75,0,0,1-1.3,2.37l.75.7a3.56,3.56,0,0,0,1.94,1L785,67A4.47,4.47,0,0,1,781.53,65.5Zm-1.62-3.22c1.18,0,1.58-.4,1.58-1.1s-.38-1.07-1.28-1.07h-.82v2.18Z"/>
  </g>
  <g>
    <path class="a" d="M819.33,58.13h2.61l2,6.9,2.42-6.9h2.54l-3.38,8.74h-3.38Z"/>
    <path class="a" d="M832.58,58.13h3.3l2.91,8.74h-2.66L835.61,65h-3.17l-.61,1.86h-2.58Zm2.48,5.07-.93-3.28L833,63.2Z"/>
    <path class="a" d="M846.66,66.87l-3.6-5.22.13,1.09v4.13h-2.48V58.13h2.74l3.6,5.36-.06-.93V58.13h2.48v8.74Z"/>
    <path class="a" d="M856.92,60.06v6.8h-2.48v-6.8H851.7V58.13h8v1.94Z"/>
    <path class="a" d="M863.46,58.13h3.3l2.91,8.74H867L866.49,65h-3.17l-.61,1.86h-2.58Zm2.48,5.07L865,59.92l-1.09,3.28Z"/>
    <path class="a" d="M877.61,66.77a8.25,8.25,0,0,1-2,.22c-3,0-5-1.41-5-4.43S872.45,58,875.7,58a6.66,6.66,0,0,1,2.85.58l-.67,1.78a7.6,7.6,0,0,0-2.21-.32c-1.47,0-2.53.64-2.53,2.37a2.39,2.39,0,0,0,2.69,2.5,2.57,2.57,0,0,0,.35,0V62.51h2.48v3.94A8.56,8.56,0,0,1,877.61,66.77Z"/>
    <path class="a" d="M881.7,66.87V58.13h6.58v1.94h-4.1v1.5H888v1.84h-3.83v1.52h4.39v1.94Z"/>
    <path class="a" d="M900.42,66.87V63.09l.11-1.34-2.26,5.12h-2.53l-2.16-5.12.18,1.34v3.78h-2.32V58.13h2.88l2.74,6.4,2.93-6.4h2.75v8.74Z"/>
    <path class="a" d="M910.9,66.87V58.13h6.58v1.94h-4.1v1.5h3.83v1.84h-3.83v1.52h4.39v1.94Z"/>
    <path class="a" d="M922.77,62.4l-2.9-4.27h2.88l1.47,2.66,1.58-2.66h2.82l-3.07,4.26,3.06,4.48h-2.88l-1.63-2.72-1.76,2.72h-2.82Z"/>
    <path class="a" d="M936.89,66.8a8.16,8.16,0,0,1-2,.19c-3.28,0-5-1.57-5-4.43,0-3,1.71-4.51,5-4.51a6.64,6.64,0,0,1,2.95.58l-.67,1.78a7.48,7.48,0,0,0-2.26-.32,2.19,2.19,0,0,0-2.48,2.37c0,1.63,1.06,2.5,2.74,2.5a7.59,7.59,0,0,0,2.15-.27c.18.61.37,1.23.54,1.84A6.45,6.45,0,0,1,936.89,66.8Z"/>
    <path class="a" d="M940.08,66.87V58.13h2.48v6.79h3.78v2Z"/>
    <path class="a" d="M952.34,67c-2,0-4.24-.64-4.24-3.51V58.13h2.5v5.33c0,.85.5,1.52,1.74,1.52a1.55,1.55,0,0,0,1.74-1.78V58.13h2.45v5.11C956.53,66.31,954.34,67,952.34,67Z"/>
    <path class="a" d="M959.08,66.45l.69-1.89a8.11,8.11,0,0,0,2.72.42c1.18,0,1.52-.3,1.52-.62,0-.54-1.09-.72-2.21-1.12s-2.48-1.09-2.48-2.72,2-2.43,3.76-2.43a7.22,7.22,0,0,1,3.17.51l-.56,1.81a9.65,9.65,0,0,0-2.54-.34c-1,0-1.07.26-1.07.45,0,.46.9.72,1.9,1.09,1.33.48,2.86,1.12,2.86,2.67,0,2-2.26,2.72-4.32,2.72A7.51,7.51,0,0,1,959.08,66.45Z"/>
    <path class="a" d="M969.4,66.87V58.13h2.48v8.74Z"/>
    <path class="a" d="M974,58.13h2.61l2,6.9,2.42-6.9h2.54l-3.38,8.74H976.8Z"/>
    <path class="a" d="M987.2,58.13h3.3l2.91,8.74h-2.66L990.23,65h-3.17l-.61,1.86h-2.58Zm2.48,5.07-.93-3.28-1.09,3.28Z"/>
  </g>
  <g>
    <path class="a" d="M1089,66.45l.69-1.89a8.11,8.11,0,0,0,2.72.42c1.18,0,1.52-.3,1.52-.62,0-.54-1.09-.72-2.21-1.12s-2.48-1.09-2.48-2.72,2-2.43,3.76-2.43a7.22,7.22,0,0,1,3.17.51l-.56,1.81a9.65,9.65,0,0,0-2.54-.34c-1,0-1.07.26-1.07.45,0,.46.9.72,1.9,1.09,1.33.48,2.86,1.12,2.86,2.67,0,2-2.26,2.72-4.32,2.72A7.51,7.51,0,0,1,1089,66.45Z"/>
    <path class="a" d="M1099.28,66.87V58.13h6.58v1.94h-4.1v1.5h3.83v1.84h-3.83v1.52h4.39v1.94Z"/>
    <path class="a" d="M1115.36,66.77a8.25,8.25,0,0,1-2,.22c-3,0-5-1.41-5-4.43s1.82-4.51,5.07-4.51a6.66,6.66,0,0,1,2.85.58l-.67,1.78a7.6,7.6,0,0,0-2.21-.32c-1.47,0-2.53.64-2.53,2.37a2.39,2.39,0,0,0,2.69,2.5,2.57,2.57,0,0,0,.35,0V62.51h2.48v3.94A8.57,8.57,0,0,1,1115.36,66.77Z"/>
    <path class="a" d="M1128.43,66.87V63.09l.11-1.34-2.26,5.12h-2.53l-2.16-5.12.18,1.34v3.78h-2.32V58.13h2.88l2.74,6.4,2.93-6.4h2.75v8.74Z"/>
    <path class="a" d="M1134.11,66.87V58.13h6.58v1.94h-4.1v1.5h3.83v1.84h-3.83v1.52H1141v1.94Z"/>
    <path class="a" d="M1149.81,66.87l-3.6-5.22.13,1.09v4.13h-2.48V58.13h2.74l3.6,5.36-.06-.93V58.13h2.48v8.74Z"/>
    <path class="a" d="M1160.06,60.06v6.8h-2.48v-6.8h-2.74V58.13h8v1.94Z"/>
    <path class="a" d="M1169.15,67c-3.17,0-4.75-1.74-4.75-4.51,0-2.95,1.92-4.48,5-4.48,3.28,0,4.72,1.79,4.72,4.5C1174.11,65.41,1172.35,67,1169.15,67Zm.13-7a2.2,2.2,0,0,0-2.39,2.51c0,1.47.67,2.58,2.29,2.58,1.78,0,2.42-1.06,2.42-2.56S1170.89,60,1169.28,60Z"/>
    <path class="a" d="M1176.17,66.45l.69-1.89a8.11,8.11,0,0,0,2.72.42c1.18,0,1.52-.3,1.52-.62,0-.54-1.09-.72-2.21-1.12s-2.48-1.09-2.48-2.72,2-2.43,3.76-2.43a7.22,7.22,0,0,1,3.17.51l-.56,1.81a9.65,9.65,0,0,0-2.54-.34c-1,0-1.07.26-1.07.45,0,.46.9.72,1.9,1.09,1.33.48,2.86,1.12,2.86,2.67,0,2-2.26,2.72-4.32,2.72A7.51,7.51,0,0,1,1176.17,66.45Z"/>
    <path class="a" d="M1194.67,66.87h-3.38V58.13h3.31c3.07,0,5.28,1.31,5.28,4.35S1197.89,66.87,1194.67,66.87Zm-.1-6.8h-.82v4.87h1.06c1.9,0,2.59-.8,2.59-2.34S1196.56,60.06,1194.57,60.06Z"/>
    <path class="a" d="M1202.6,66.87V58.13h6.58v1.94h-4.1v1.5h3.83v1.84h-3.83v1.52h4.39v1.94Z"/>
    <path class="a" d="M1223.49,66.8a8.16,8.16,0,0,1-2,.19c-3.28,0-5-1.57-5-4.43,0-3,1.71-4.51,5-4.51a6.64,6.64,0,0,1,2.95.58l-.67,1.78a7.48,7.48,0,0,0-2.26-.32,2.19,2.19,0,0,0-2.48,2.37c0,1.63,1.06,2.5,2.74,2.5a7.59,7.59,0,0,0,2.15-.27c.18.61.37,1.23.54,1.84A6.45,6.45,0,0,1,1223.49,66.8Z"/>
    <path class="a" d="M1226.68,66.87V58.13h2.48v6.79h3.78v2Z"/>
    <path class="a" d="M1235.18,66.87V58.13h2.48v8.74Z"/>
    <path class="a" d="M1241,66.87V58.13h6.58v1.94h-4.1v1.5h3.83v1.84h-3.83v1.52h4.39v1.94Z"/>
    <path class="a" d="M1256.72,66.87l-3.6-5.22.13,1.09v4.13h-2.48V58.13h2.74l3.6,5.36-.06-.93V58.13h2.48v8.74Z"/>
    <path class="a" d="M1267,60.06v6.8h-2.48v-6.8h-2.74V58.13h8v1.94Z"/>
    <path class="a" d="M1271.95,66.87V58.13h6.58v1.94h-4.1v1.5h3.83v1.84h-3.83v1.52h4.39v1.94Z"/>
    <path class="a" d="M1281,66.45l.69-1.89a8.11,8.11,0,0,0,2.72.42c1.18,0,1.52-.3,1.52-.62,0-.54-1.09-.72-2.21-1.12s-2.48-1.09-2.48-2.72,2-2.43,3.76-2.43a7.22,7.22,0,0,1,3.17.51l-.56,1.81a9.65,9.65,0,0,0-2.54-.34c-1,0-1.07.26-1.07.45,0,.46.9.72,1.9,1.09,1.33.48,2.86,1.12,2.86,2.67,0,2-2.26,2.72-4.32,2.72A7.51,7.51,0,0,1,1281,66.45Z"/>
  </g>
  <g>
    <path class="a" d="M827,297.8a8.16,8.16,0,0,1-2,.19c-3.28,0-5-1.57-5-4.43,0-3,1.71-4.51,5-4.51a6.64,6.64,0,0,1,2.95.58l-.67,1.78a7.48,7.48,0,0,0-2.26-.32,2.19,2.19,0,0,0-2.48,2.37c0,1.63,1.06,2.5,2.74,2.5a7.59,7.59,0,0,0,2.14-.27c.18.61.37,1.23.54,1.84A6.45,6.45,0,0,1,827,297.8Z"/>
    <path class="a" d="M832,289.13h3.3l2.91,8.74h-2.66l-.53-1.86h-3.17l-.61,1.86h-2.58Zm2.48,5.07-.93-3.28-1.09,3.28Z"/>
    <path class="a" d="M846.12,297.87l-3.6-5.22.13,1.09v4.13h-2.48v-8.74h2.74l3.6,5.36-.06-.93v-4.43h2.48v8.74Z"/>
    <path class="a" d="M853.94,289.13h3.3l2.91,8.74h-2.66L857,296H853.8l-.61,1.86h-2.58Zm2.48,5.07-.93-3.28-1.09,3.28Z"/>
    <path class="a" d="M862.07,297.87v-8.74h2.48v8.74Z"/>
    <path class="a" d="M867.25,297.45l.69-1.89a8.11,8.11,0,0,0,2.72.42c1.18,0,1.52-.3,1.52-.62,0-.54-1.09-.72-2.21-1.12s-2.48-1.09-2.48-2.72,2-2.43,3.76-2.43a7.22,7.22,0,0,1,3.17.51l-.56,1.81a9.65,9.65,0,0,0-2.54-.34c-1,0-1.07.26-1.07.45,0,.46.9.72,1.9,1.09,1.33.48,2.86,1.12,2.86,2.67,0,2-2.26,2.72-4.32,2.72A7.51,7.51,0,0,1,867.25,297.45Z"/>
  </g>
</svg>
